<?xml version="1.0" standalone="no"?><!DOCTYPE svg PUBLIC "-//W3C//DTD SVG 1.1//EN" "http://www.w3.org/Graphics/SVG/1.1/DTD/svg11.dtd"> <svg height="1024" legacy-metrics="false" node-id="1" sillyvg="true" template-height="1024" template-width="1024" version="1.1" viewBox="0 0 1024 1024" width="1024" xmlns="http://www.w3.org/2000/svg" xmlns:xlink="http://www.w3.org/1999/xlink"><defs node-id="81"><linearGradient gradientUnits="userSpaceOnUse" id="未命名的渐变_25" node-id="5" x1="106.31" x2="180.36" y1="2093.97" y2="2093.97"><stop offset="0" stop-color="#fedb5a"></stop><stop offset="1" stop-color="#f2b446"></stop></linearGradient><linearGradient gradientUnits="userSpaceOnUse" id="未命名的渐变_25-2" node-id="8" x1="139.98" x2="143.83" y1="2111.84" y2="2111.84"><stop offset="0" stop-color="#fedb5a"></stop><stop offset="1" stop-color="#f2b446"></stop></linearGradient><linearGradient gradientUnits="userSpaceOnUse" id="未命名的渐变_25-3" node-id="9" x1="201.62" x2="256.07" y1="1981.83" y2="1981.83"><stop offset="0" stop-color="#fedb5a"></stop><stop offset="1" stop-color="#f2b446"></stop></linearGradient><linearGradient gradientUnits="userSpaceOnUse" id="未命名的渐变_25-4" node-id="10" x1="226.39" x2="229.22" y1="1995.47" y2="1995.47"><stop offset="0" stop-color="#fedb5a"></stop><stop offset="1" stop-color="#f2b446"></stop></linearGradient><linearGradient gradientUnits="userSpaceOnUse" id="未命名的渐变_25-5" node-id="11" x1="167.06" x2="198.35" y1="2007.43" y2="2007.43"><stop offset="0" stop-color="#fedb5a"></stop><stop offset="1" stop-color="#f2b446"></stop></linearGradient><linearGradient gradientUnits="userSpaceOnUse" id="未命名的渐变_25-6" node-id="12" x1="181.3" x2="182.92" y1="2014.35" y2="2014.35"><stop offset="0" stop-color="#fedb5a"></stop><stop offset="1" stop-color="#f2b446"></stop></linearGradient><linearGradient gradientUnits="userSpaceOnUse" id="未命名的渐变_25-7" node-id="13" x1="232.87" x2="577.08" y1="1974.49" y2="1974.49"><stop offset="0" stop-color="#fedb5a"></stop><stop offset="1" stop-color="#f2b446"></stop></linearGradient><linearGradient gradientUnits="userSpaceOnUse" id="未命名的渐变_25-8" node-id="14" x1="247.47" x2="267.89" y1="1846.14" y2="1846.14"><stop offset="0" stop-color="#fedb5a"></stop><stop offset="1" stop-color="#f2b446"></stop></linearGradient><linearGradient gradientUnits="userSpaceOnUse" id="未命名的渐变_25-9" node-id="15" x1="212.69" x2="238.49" y1="1853.93" y2="1853.93"><stop offset="0" stop-color="#fedb5a"></stop><stop offset="1" stop-color="#f2b446"></stop></linearGradient><linearGradient gradientUnits="userSpaceOnUse" id="未命名的渐变_25-10" node-id="16" x1="222.92" x2="255.99" y1="1889.92" y2="1889.92"><stop offset="0" stop-color="#fedb5a"></stop><stop offset="1" stop-color="#f2b446"></stop></linearGradient><linearGradient gradientTransform="matrix(0.99 -0.17 -0.17 -0.99 -628.73 -920.15)" gradientUnits="userSpaceOnUse" id="未命名的渐变_25-11" node-id="17" x1="656.42" x2="676.31" y1="-1461.55" y2="-1461.55"><stop offset="0" stop-color="#fedb5a"></stop><stop offset="1" stop-color="#f2b446"></stop></linearGradient><linearGradient gradientUnits="userSpaceOnUse" id="未命名的渐变_25-12" node-id="18" x1="247.58" x2="278.17" y1="1921.72" y2="1921.72"><stop offset="0" stop-color="#fedb5a"></stop><stop offset="1" stop-color="#f2b446"></stop></linearGradient><linearGradient gradientTransform="matrix(0.96 -0.28 -0.28 -0.96 -989.24 -526.99)" gradientUnits="userSpaceOnUse" id="未命名的渐变_25-13" node-id="19" x1="957.05" x2="976.97" y1="-1281.4" y2="-1281.4"><stop offset="0" stop-color="#fedb5a"></stop><stop offset="1" stop-color="#f2b446"></stop></linearGradient><linearGradient gradientUnits="userSpaceOnUse" id="未命名的渐变_25-14" node-id="20" x1="280.02" x2="309.59" y1="1945.45" y2="1945.45"><stop offset="0" stop-color="#fedb5a"></stop><stop offset="1" stop-color="#f2b446"></stop></linearGradient><linearGradient gradientUnits="userSpaceOnUse" id="未命名的渐变_25-15" node-id="21" x1="326.33" x2="348.67" y1="1923.52" y2="1923.52"><stop offset="0" stop-color="#fedb5a"></stop><stop offset="1" stop-color="#f2b446"></stop></linearGradient><linearGradient gradientUnits="userSpaceOnUse" id="未命名的渐变_17" node-id="22" x1="236" x2="309.21" y1="1781.7" y2="1708.49"><stop offset="0.02" stop-color="#fedb43"></stop><stop offset="1" stop-color="#f8c850"></stop></linearGradient><linearGradient gradientUnits="userSpaceOnUse" id="未命名的渐变_25-16" node-id="25" x1="562.21" x2="372.4" y1="2070.19" y2="1679.19"><stop offset="0" stop-color="#fedb5a"></stop><stop offset="1" stop-color="#f2b446"></stop></linearGradient><linearGradient gradientUnits="userSpaceOnUse" id="未命名的渐变_25-17" node-id="26" x1="609.67" x2="609.67" y1="2128.87" y2="2067.74"><stop offset="0" stop-color="#fedb5a"></stop><stop offset="1" stop-color="#f2b446"></stop></linearGradient><linearGradient gradientTransform="matrix(1 -0.08 -0.08 -1 -290.96 -1220.37)" gradientUnits="userSpaceOnUse" id="未命名的渐变_22" node-id="27" x1="707.02" x2="539.88" y1="-1623.13" y2="-1593.3"><stop offset="0" stop-color="#ffffff"></stop><stop offset="1" stop-color="#fde999"></stop></linearGradient><linearGradient gradientTransform="matrix(0.71 0.71 0.71 -0.71 1633.82 -1410.46)" gradientUnits="userSpaceOnUse" id="未命名的渐变_25-18" node-id="30" x1="759.50995" x2="736.0399" y1="-2014.8099" y2="-1986.8298"><stop offset="0" stop-color="#fedb5a"></stop><stop offset="1" stop-color="#f2b446"></stop></linearGradient><linearGradient gradientTransform="matrix(1 -0.08 -0.08 -1 -290.96 -1220.37)" gradientUnits="userSpaceOnUse" id="未命名的渐变_22-2" node-id="31" x1="739.24" x2="528.15" y1="-1673" y2="-1656.37"><stop offset="0" stop-color="#ffffff"></stop><stop offset="1" stop-color="#fde999"></stop></linearGradient><linearGradient gradientUnits="userSpaceOnUse" id="未命名的渐变_25-19" node-id="32" x1="768.66" x2="553.03" y1="1972.48" y2="1847.99"><stop offset="0" stop-color="#fedb5a"></stop><stop offset="1" stop-color="#f2b446"></stop></linearGradient><radialGradient cx="660.89" cy="-1909.24" fx="660.89" fy="-1909.24" gradientTransform="matrix(1 0 0 -1 -4.28 -1467.31)" gradientUnits="userSpaceOnUse" id="未命名的渐变_24" node-id="33" r="103.52"><stop offset="0.69" stop-color="#fcfbed"></stop><stop offset="0.71" stop-color="#fcfbed"></stop><stop offset="1" stop-color="#fde999"></stop></radialGradient><linearGradient gradientTransform="matrix(-0.88 0.00000000000000010776891832496708 -0.00000000000000010042103753008296 -0.82 4139.71 409.24)" gradientUnits="userSpaceOnUse" id="未命名的渐变_25-20" node-id="37" x1="3731.7197" x2="3774.2097" y1="-243.58998" y2="-243.58998"><stop offset="0" stop-color="#fedb5a"></stop><stop offset="1" stop-color="#f2b446"></stop></linearGradient><linearGradient gradientTransform="matrix(0.89 0.46 0.46 -0.89 1769.28 -1557.74)" gradientUnits="userSpaceOnUse" id="未命名的渐变_26" node-id="38" x1="-200.99" x2="-163.09" y1="-2103.37" y2="-2103.37"><stop offset="0" stop-color="#ffffff"></stop><stop offset="0.0000000000000002220446" stop-color="#fcfbed"></stop><stop offset="1" stop-color="#fde999" stop-opacity="0"></stop></linearGradient></defs><path d="M 0.00 0.00 L 1024.00 0.00 L 1024.00 1024.00 L 0.00 1024.00 Z" fill="#fffdfc" fill-rule="nonzero" node-id="238" stroke="none" target-height="1024" target-width="1024" target-x="0" target-y="0"></path><g node-id="375"><path d="M 266.67 783.09 C 239.47 791.55 213.67 803.40 183.97 804.86 C 115.97 808.22 43.86 771.52 17.97 706.23 C -0.27 660.23 7.00 610.49 32.75 569.00 C 45.75 548.00 66.65 531.00 83.38 512.07 C 103.94 488.75 107.78 466.94 113.96 437.33 C 119.22 412.13 130.65 387.59 143.43 365.40 C 174.35 311.68 222.82 268.40 280.24 244.84 C 331.34 223.81 387.65 218.93 441.60 230.84 C 468.53 236.93 494.53 246.59 518.90 259.56 C 552.96 277.49 563.20 302.56 585.81 300.49 C 602.42 299.00 605.38 286.21 625.19 272.58 C 662.33 247.03 723.19 242.88 763.11 270.97 C 790.35 290.15 800.84 319.45 804.42 329.45 C 811.48 364.53 813.84 381.28 815.32 399.31 C 815.92 406.86 821.07 413.28 828.32 415.48 C 876.21 429.71 924.14 450.93 958.96 487.83 C 990.09 520.83 1013.57 569.72 1015.96 615.23 C 1016.94 632.67 1014.56 650.13 1008.96 666.67 C 994.62 708.57 948.36 740.20 909.85 758.74 C 874.54 780.56 835.99 796.62 795.63 806.33 C 709.63 826.94 637.11 813.10 599.22 802.86 C 547.56 786.21 494.12 775.74 440.00 771.66 C 392.39 768.09 344.29 769.00 297.00 775.90 C 286.72 777.49 276.58 779.90 266.67 783.09 Z" fill="#ffecbb" fill-opacity="0.5" fill-rule="nonzero" group-id="1" node-id="242" stroke-linecap="butt" stroke-opacity="0.5" stroke-width="1" target-height="592.4592" target-width="1008.3284" target-x="7.841258" target-y="224.50198"></path></g><path d="M 143.83 544.33 C 142.94 549.67 65.43 700.23 135.83 705.57 C 231.13 717.15 143.83 544.33 143.83 544.33 Z" fill="url(#未命名的渐变_25)" fill-rule="nonzero" node-id="245" stroke="none" target-height="161.75122" target-width="73.991776" target-x="106.3434" target-y="544.33"></path><path d="M 143.61 545.00 C 141.75 569.70 140.51 595.69 140.12 622.87 C 139.50 665.07 141.00 704.64 143.83 741.21" fill="url(#未命名的渐变_25-2)" fill-rule="nonzero" node-id="247" stroke="none" target-height="196.21002" target-width="3.8430176" target-x="139.98698" target-y="545"></path><path d="M 229.22 451.38 C 228.56 455.45 171.57 570.31 223.32 574.38 C 293.41 583.22 229.22 451.38 229.22 451.38 Z" fill="url(#未命名的渐变_25-3)" fill-opacity="0.2" fill-rule="nonzero" group-id="2" node-id="251" stroke-linecap="butt" stroke-opacity="0.2" stroke-width="1" target-height="123.401245" target-width="54.390045" target-x="201.66476" target-y="451.38"></path><path d="M 229.00 451.89 C 227.64 470.73 226.73 490.56 226.44 511.30 C 225.99 543.49 227.09 573.68 229.17 601.57" fill="url(#未命名的渐变_25-4)" fill-opacity="0.2" fill-rule="nonzero" group-id="3" node-id="256" stroke-linecap="butt" stroke-opacity="0.2" stroke-width="1" target-height="149.68" target-width="2.7839203" target-x="226.38608" target-y="451.89"></path><path d="M 182.92 507.36 C 182.55 509.43 149.79 567.73 179.53 569.81 C 219.81 574.29 182.92 507.36 182.92 507.36 Z" fill="url(#未命名的渐变_25-5)" fill-opacity="0.2" fill-rule="nonzero" group-id="4" node-id="261" stroke-linecap="butt" stroke-opacity="0.2" stroke-width="1" target-height="62.652466" target-width="31.215149" target-x="167.0966" target-y="507.36"></path><path d="M 182.83 507.62 C 182.04 517.18 181.52 527.25 181.35 537.78 C 181.09 554.12 181.73 569.44 182.92 583.61" fill="url(#未命名的渐变_25-6)" fill-opacity="0.2" fill-rule="nonzero" group-id="5" node-id="266" stroke-linecap="butt" stroke-opacity="0.2" stroke-width="1" target-height="75.98999" target-width="1.5699921" target-x="181.35" target-y="507.62"></path><path d="M 968.48 671.45 C 968.48 693.99 842.82 712.27 687.82 712.27 C 532.82 712.27 407.16 693.99 407.16 671.45 C 407.16 648.91 532.82 630.63 687.82 630.63 C 842.82 630.63 968.48 648.91 968.48 671.45 Z" fill="#fce5b4" fill-opacity="0.5" fill-rule="nonzero" group-id="6" node-id="271" stroke-linecap="butt" stroke-opacity="0.5" stroke-width="1" target-height="81.640015" target-width="561.31995" target-x="407.16" target-y="630.63"></path><path d="M 373.63 706.42 C 373.63 710.95 355.61 714.62 333.38 714.62 C 311.15 714.62 293.13 710.95 293.13 706.42 C 293.13 701.89 311.15 698.22 333.38 698.22 C 355.61 698.22 373.63 701.89 373.63 706.42 Z" fill="#fce5b4" fill-opacity="0.5" fill-rule="nonzero" group-id="7" node-id="276" stroke-linecap="butt" stroke-opacity="0.5" stroke-width="1" target-height="16.400024" target-width="80.5" target-x="293.13" target-y="698.22"></path><path d="M 234.00 365.19 C 240.25 383.43 249.12 400.67 260.34 416.35 C 271.46 432.05 285.16 445.75 300.84 456.89 C 316.60 467.83 334.33 475.61 352.46 481.89 C 370.59 488.17 389.25 493.16 407.68 498.96 C 416.90 501.83 426.05 504.96 435.03 508.61 C 439.52 510.42 443.97 512.34 448.36 514.37 C 452.77 516.37 457.07 518.62 461.36 520.78 C 469.97 525.13 478.56 529.59 486.84 534.62 C 490.98 537.12 495.03 539.79 498.99 542.62 C 502.96 545.42 506.79 548.43 510.45 551.62 C 514.11 554.85 517.69 558.07 521.08 561.53 C 524.47 564.99 527.74 568.53 530.89 572.24 C 537.11 579.64 542.90 587.41 548.21 595.49 C 553.53 603.56 558.39 611.92 562.97 620.41 C 567.55 628.90 571.82 637.55 575.85 646.31 C 567.24 629.07 557.99 612.11 547.12 596.23 C 541.73 588.27 535.89 580.63 529.61 573.35 C 526.43 569.74 523.18 566.21 519.75 562.86 C 516.32 559.51 512.75 556.27 509.11 553.20 C 501.75 547.06 493.91 541.51 485.68 536.60 C 477.46 531.60 468.91 527.26 460.29 522.95 C 455.97 520.80 451.69 518.62 447.29 516.63 C 442.89 514.64 438.52 512.74 434.06 510.97 C 429.60 509.20 425.06 507.53 420.56 505.97 C 416.06 504.41 411.47 502.85 406.88 501.40 C 388.55 495.56 369.88 490.54 351.65 484.11 C 342.50 480.93 333.53 477.26 324.78 473.11 C 298.35 460.62 275.78 441.24 259.45 417.00 C 248.43 401.10 239.85 383.63 234.00 365.19 Z" fill="url(#未命名的渐变_25-7)" fill-opacity="0.6" fill-rule="nonzero" group-id="8" node-id="281" stroke-linecap="butt" stroke-opacity="0.6" stroke-width="1" target-height="281.12" target-width="341.84998" target-x="234" target-y="365.19"></path><path d="M 247.47 397.78 L 249.86 377.71 C 250.75 370.29 250.86 352.71 263.16 357.99 C 271.84 361.73 266.61 371.99 263.02 377.56 C 260.51 381.35 257.74 384.96 254.72 388.35 C 252.55 390.85 247.88 394.38 247.47 397.78 Z" fill="url(#未命名的渐变_25-8)" fill-opacity="0.6" fill-rule="nonzero" group-id="9" node-id="286" stroke-linecap="butt" stroke-opacity="0.6" stroke-width="1" target-height="40.766876" target-width="20.42984" target-x="247.47" target-y="357.01312"></path><path d="M 238.49 377.81 C 237.16 379.44 232.80 378.23 231.11 378.01 C 228.38 377.55 225.59 377.64 222.90 378.29 C 217.97 379.54 210.56 382.95 213.28 389.29 C 214.97 393.22 222.02 393.10 225.34 391.99 C 230.89 390.15 235.00 382.16 238.49 377.81 Z" fill="url(#未命名的渐变_25-9)" fill-opacity="0.6" fill-rule="nonzero" group-id="10" node-id="291" stroke-linecap="butt" stroke-opacity="0.6" stroke-width="1" target-height="14.923523" target-width="25.78836" target-x="212.70164" target-y="377.73315"></path><path d="M 256.00 411.57 C 255.00 412.67 245.45 410.95 243.70 410.89 C 239.83 410.58 235.93 410.66 232.07 411.13 C 226.37 412.13 222.63 415.63 222.94 421.66 C 223.19 425.90 225.95 429.57 229.94 431.01 C 232.28 431.85 234.84 431.87 237.20 431.07 C 240.08 430.07 240.96 427.39 242.20 424.90 C 244.28 420.56 247.60 416.94 251.75 414.50 C 253.25 413.65 254.67 412.67 256.00 411.57 Z" fill="url(#未命名的渐变_25-10)" fill-opacity="0.6" fill-rule="nonzero" group-id="11" node-id="296" stroke-linecap="butt" stroke-opacity="0.6" stroke-width="1" target-height="20.938843" target-width="33.059998" target-x="222.94" target-y="410.7174"></path><path d="M 267.13 426.46 C 268.75 418.99 266.02 411.35 266.29 403.83 C 266.51 397.52 271.76 387.48 279.62 393.06 C 282.62 395.21 283.73 400.44 281.04 404.75 C 273.92 410.06 268.98 417.77 267.13 426.46 Z" fill="url(#未命名的渐变_25-11)" fill-opacity="0.6" fill-rule="nonzero" group-id="12" node-id="301" stroke-linecap="butt" stroke-opacity="0.6" stroke-width="1" target-height="35.00302" target-width="16.24408" target-x="266.29" target-y="391.45697"></path><path d="M 278.17 440.86 C 268.98 440.07 259.81 442.66 252.39 448.14 C 247.30 451.62 246.39 458.19 249.03 461.87 C 250.91 464.45 255.03 465.44 258.11 465.20 C 263.55 464.77 263.76 460.92 264.48 456.67 C 264.93 454.14 265.86 451.72 267.24 449.55 C 269.79 445.50 273.65 442.43 278.17 440.86 Z" fill="url(#未命名的渐变_25-12)" fill-opacity="0.6" fill-rule="nonzero" group-id="13" node-id="306" stroke-linecap="butt" stroke-opacity="0.6" stroke-width="1" target-height="24.453094" target-width="30.573334" target-x="247.59668" target-y="440.74692"></path><path d="M 293.58 452.76 C 293.58 443.94 287.75 436.45 287.30 427.71 C 286.94 420.93 291.19 411.95 299.30 414.32 C 304.66 415.88 307.04 422.82 303.05 427.00 C 296.60 433.80 293.61 443.50 293.58 452.76 Z" fill="url(#未命名的渐变_25-13)" fill-opacity="0.6" fill-rule="nonzero" group-id="14" node-id="311" stroke-linecap="butt" stroke-opacity="0.6" stroke-width="1" target-height="38.80255" target-width="17.742218" target-x="287.3" target-y="413.95746"></path><path d="M 309.59 464.45 C 303.49 463.16 297.14 463.75 291.38 466.13 C 287.46 467.77 282.69 470.24 280.81 474.43 C 278.55 479.43 281.45 485.43 286.05 487.98 C 290.05 490.23 297.19 490.68 300.05 486.35 C 302.27 482.98 299.88 479.77 300.63 476.21 C 302.21 468.70 308.51 465.05 309.59 464.45 Z" fill="url(#未命名的渐变_25-14)" fill-opacity="0.6" fill-rule="nonzero" group-id="15" node-id="316" stroke-linecap="butt" stroke-opacity="0.6" stroke-width="1" target-height="25.847992" target-width="29.565155" target-x="280.02484" target-y="463.78357"></path><path d="M 326.78 473.46 C 326.49 470.61 324.10 445.61 334.41 438.57 C 335.88 437.57 338.99 435.43 342.54 436.32 C 345.60 437.19 347.92 439.70 348.54 442.82 C 349.09 446.03 347.24 448.59 345.30 451.17 C 341.38 456.39 338.04 456.94 334.09 460.70 C 330.54 464.21 328.01 468.62 326.78 473.46 Z" fill="url(#未命名的渐变_25-15)" fill-opacity="0.6" fill-rule="nonzero" group-id="16" node-id="321" stroke-linecap="butt" stroke-opacity="0.6" stroke-width="1" target-height="37.35199" target-width="22.242676" target-x="326.37125" target-y="436.108"></path><path d="M 216.68 293.64 C 235.34 289.46 258.75 285.07 278.33 282.48 L 331.79 275.40 C 331.00 275.51 320.93 254.06 319.44 251.79 C 311.00 238.88 295.67 226.79 279.30 228.21 C 250.86 230.67 229.87 259.98 220.42 284.45 C 220.00 285.56 217.93 293.36 216.68 293.64 Z" fill="url(#未命名的渐变_17)" fill-opacity="0.5" fill-rule="nonzero" group-id="17" node-id="326" stroke-linecap="butt" stroke-opacity="0.5" stroke-width="1" target-height="65.5029" target-width="115.110016" target-x="216.68" target-y="228.13712"></path><path d="M 279.44 228.00 L 541.64 244.74 C 541.64 244.74 575.54 251.18 584.98 296.67 C 594.42 342.16 619.31 583.33 677.68 612.51 C 534.76 610.81 529.28 608.26 529.20 608.22 C 533.00 610.22 515.27 638.32 513.65 640.22 C 498.47 658.22 472.97 661.85 451.00 657.09 C 417.50 649.82 396.68 620.09 383.32 590.71 C 360.28 540.00 347.00 485.14 342.90 429.64 C 339.08 378.09 341.21 324.69 321.81 275.79 C 315.00 258.76 300.78 230.65 279.44 228.00 Z" fill="url(#未命名的渐变_25-16)" fill-rule="nonzero" node-id="329" stroke="none" target-height="430.9934" target-width="398.24" target-x="279.44" target-y="228"></path><path d="M 516.91 599.00 L 783.24 603.29 C 783.24 603.29 766.94 650.00 672.10 654.76 C 577.26 659.52 464.83 665.06 436.10 652.19 C 450.41 652.84 464.65 649.78 477.42 643.29 C 503.93 629.67 514.28 605.69 516.91 599.00 Z" fill="url(#未命名的渐变_25-17)" fill-rule="nonzero" node-id="331" stroke="none" target-height="61.103455" target-width="347.13998" target-x="436.1" target-y="599"></path><path d="M 573.93 350.93 L 364.09 354.15 C 366.08 345.17 366.08 335.85 364.09 326.87 L 573.27 323.25 C 575.50 329.67 576.27 336.50 575.52 343.25 C 575.22 345.85 574.69 348.42 573.93 350.93 Z" fill="url(#未命名的渐变_22)" fill-opacity="0.5" fill-rule="nonzero" group-id="18" node-id="335" stroke-linecap="butt" stroke-opacity="0.5" stroke-width="1" target-height="30.899994" target-width="211.70798" target-x="364.09" target-y="323.25"></path><path d="M 727.83 528.47 L 743.16 513.13 L 767.74 537.71 L 752.41 553.05 Z" fill="url(#未命名的渐变_25-18)" fill-rule="nonzero" node-id="338" stroke-linecap="butt" stroke-width="0.99999994" target-height="39.916138" target-width="39.916138" target-x="727.82733" target-y="513.12964"></path><path d="M 577.37 405.86 L 367.52 409.08 C 368.13 406.32 368.56 403.52 368.81 400.71 C 369.33 394.38 368.91 388.01 367.55 381.80 L 576.72 378.18 C 578.95 384.60 579.72 391.43 578.98 398.18 C 578.67 400.78 578.13 403.35 577.37 405.86 Z" fill="url(#未命名的渐变_22-2)" fill-opacity="0.5" fill-rule="nonzero" group-id="19" node-id="342" stroke-linecap="butt" stroke-opacity="0.5" stroke-width="1" target-height="30.899994" target-width="211.73276" target-x="367.52" target-y="378.18"></path><path d="M 656.61 317.46 C 606.27 317.43 560.86 347.73 541.56 394.23 C 522.27 440.73 532.89 494.27 568.46 529.89 C 604.04 565.51 657.57 576.19 704.10 556.95 C 750.62 537.71 780.97 492.34 781.00 442.00 L 781.00 442.00 C 781.04 373.26 725.35 317.50 656.61 317.46 Z M 656.61 545.46 C 614.74 545.46 576.99 520.24 560.97 481.55 C 544.96 442.86 553.82 398.34 583.44 368.74 C 613.05 339.14 657.58 330.30 696.26 346.33 C 734.93 362.37 760.14 400.13 760.12 442.00 L 760.12 442.00 C 760.06 499.13 713.74 545.41 656.61 545.43 Z" fill="url(#未命名的渐变_25-19)" fill-rule="nonzero" node-id="345" stroke="none" target-height="248.90927" target-width="248.9126" target-x="532.0874" target-y="317.46"></path><path d="M 760.13 441.93 C 760.13 499.10 713.78 545.45 656.61 545.45 C 599.44 545.45 553.09 499.10 553.09 441.93 C 553.09 384.76 599.44 338.41 656.61 338.41 C 713.78 338.41 760.13 384.76 760.13 441.93 Z" fill="url(#未命名的渐变_24)" fill-opacity="0.5" fill-rule="nonzero" group-id="20" node-id="349" stroke-linecap="butt" stroke-opacity="0.5" stroke-width="1" target-height="207.04001" target-width="207.03998" target-x="553.09" target-y="338.41"></path><path d="M 745.48 550.95 L 765.63 530.80 L 766.62 530.06 L 767.68 529.62 L 768.83 529.48 L 769.98 529.62 L 771.04 530.06 L 772.03 530.80 L 901.86 660.63 L 902.61 661.62 L 903.04 662.68 L 903.19 663.83 L 903.04 664.98 L 902.61 666.04 L 901.86 667.03 L 881.71 687.18 L 880.72 687.93 L 879.66 688.36 L 878.51 688.51 L 877.36 688.36 L 876.30 687.93 L 875.31 687.18 L 745.48 557.36 L 744.74 556.36 L 744.30 555.31 L 744.15 554.15 L 744.30 553.00 L 744.74 551.94 L 745.48 550.95 Z" fill="url(#未命名的渐变_25-20)" fill-rule="nonzero" node-id="352" stroke-linecap="butt" stroke-width="0.99999994" target-height="159.03027" target-width="159.03027" target-x="744.1549" target-y="529.4767"></path><path d="M 642.67 207.51 C 633.93 205.60 619.16 209.92 613.58 217.08 C 608.29 223.88 614.89 231.40 620.79 234.91 C 629.15 239.91 638.24 237.10 645.92 232.18 C 656.00 225.69 655.58 210.40 642.67 207.51 Z" fill="url(#未命名的渐变_26)" fill-opacity="0.5" fill-rule="nonzero" group-id="21" node-id="356" stroke-linecap="butt" stroke-opacity="0.5" stroke-width="1" target-height="30.43451" target-width="41.27112" target-x="611.64514" target-y="207.08324"></path><path d="M 348.91 484.54 C 348.92 484.69 348.95 484.83 349.00 484.97 C 349.48 487.27 351.33 498.20 344.32 501.65 C 342.47 502.31 340.89 503.20 340.76 504.41 C 340.38 507.88 352.30 510.81 351.96 513.01 C 351.76 514.34 347.16 515.20 334.24 514.95 C 329.48 516.95 325.24 515.09 324.56 512.86 C 324.00 511.00 325.75 508.00 329.00 506.34 C 330.73 503.02 330.50 500.95 330.00 499.62 C 329.18 497.38 325.21 495.13 328.67 493.62 C 332.13 492.11 326.74 486.38 326.74 486.38 L 334.40 483.00 Z" fill="#f6c190" fill-rule="nonzero" node-id="359" stroke="none" target-height="32.792603" target-width="27.492096" target-x="324.4679" target-y="483"></path><path d="M 344.00 686.00 C 344.69 686.39 345.72 688.73 346.34 689.43 C 348.00 691.28 349.13 693.14 351.71 693.77 C 354.29 694.40 363.79 696.57 361.16 701.09 C 360.08 702.96 357.07 702.56 355.24 702.59 C 351.90 702.68 348.56 702.51 345.24 702.09 C 342.33 701.72 339.31 701.70 336.57 700.45 C 334.00 698.52 334.14 695.52 334.30 692.87 C 334.44 690.72 334.51 688.46 335.60 686.54 C 338.00 682.44 344.00 686.00 344.00 686.00 Z" fill="#f6c190" fill-rule="nonzero" node-id="361" stroke="none" target-height="18.035889" target-width="27.348816" target-x="334.22577" target-y="684.56744"></path><path d="M 313.57 685.36 C 312.89 685.75 311.86 688.09 311.23 688.78 C 309.58 690.64 308.45 692.50 305.86 693.13 C 303.27 693.76 293.78 695.93 296.41 700.45 C 297.50 702.32 300.51 701.91 302.33 701.95 C 305.67 702.03 309.01 701.87 312.33 701.45 C 315.24 701.08 318.27 701.06 321.00 699.81 C 323.57 697.88 323.44 694.88 323.27 692.23 C 323.14 690.08 323.07 687.82 321.98 685.90 C 319.69 681.83 313.57 685.36 313.57 685.36 Z" fill="#f6c190" fill-rule="nonzero" node-id="363" stroke="none" target-height="18.018372" target-width="27.353271" target-x="295.99518" target-y="683.94055"></path><path d="M 316.00 568.51 C 311.69 582.69 308.74 597.26 307.20 612.00 C 304.53 637.68 305.93 663.62 311.34 688.86 C 314.71 691.09 318.84 691.86 322.79 691.00 C 326.03 672.46 329.22 650.31 331.08 625.52 C 333.52 592.93 333.08 565.36 333.08 565.36 C 333.08 565.36 331.80 594.75 332.40 626.58 C 332.68 641.87 333.30 677.73 334.16 691.70 C 336.16 692.22 338.23 692.36 340.28 692.11 C 342.53 691.83 344.70 691.09 346.66 689.94 C 349.24 673.84 352.93 653.22 355.29 628.94 C 360.03 580.23 355.77 572.19 352.64 568.52 C 342.46 556.49 322.42 565.34 316.00 568.51 Z" fill="#4c3322" fill-rule="nonzero" node-id="365" stroke="none" target-height="129.78748" target-width="51.49362" target-x="305.91003" target-y="562.4066"></path><path d="M 332.42 477.81 C 331.52 478.06 330.59 478.21 329.53 478.52 C 328.30 478.89 327.16 479.50 326.18 480.32 C 323.33 482.73 322.78 486.47 323.53 489.97 C 323.89 491.67 326.22 499.40 328.95 498.11 C 330.01 497.61 330.38 495.72 330.61 494.72 C 330.84 493.72 331.43 491.96 331.18 490.96 C 331.18 490.96 329.55 484.44 336.18 484.96 C 339.85 485.25 343.66 486.43 347.34 485.77 C 350.39 485.22 352.72 482.72 353.05 479.63 C 353.31 476.25 350.28 474.12 347.20 473.81 C 344.59 473.55 341.96 473.84 339.48 474.67 C 337.00 475.48 334.93 477.13 332.42 477.81 Z" fill="#68370e" fill-rule="nonzero" node-id="367" stroke="none" target-height="24.47229" target-width="29.823181" target-x="323.2268" target-y="473.73322"></path><path d="M 395.53 530.44 L 397.98 537.13 C 397.98 537.13 410.93 532.00 412.98 526.64 C 413.57 525.08 413.26 523.27 411.26 523.27 C 409.26 523.27 407.65 524.91 406.07 526.08 C 405.22 526.69 404.40 527.25 403.62 527.74 C 404.62 526.74 404.87 525.52 404.44 525.02 C 403.19 523.56 400.88 525.40 399.79 526.19 C 399.04 526.72 398.25 527.19 397.52 527.76 C 397.00 528.15 395.24 529.65 395.53 530.44 Z" fill="#f6c190" fill-rule="nonzero" node-id="369" stroke="none" target-height="13.859985" target-width="17.712646" target-x="395.53" target-y="523.27"></path><path d="M 259.25 534.67 C 259.25 534.67 254.92 538.33 263.11 539.67 C 271.30 541.01 276.36 539.96 276.36 539.96 L 279.36 537.28 C 279.22 536.79 279.01 536.31 278.76 535.87 C 277.09 533.05 273.48 532.71 272.51 532.67 C 272.12 532.67 270.23 532.30 269.97 533.14 C 269.71 533.98 270.87 535.20 270.87 535.20 C 270.87 535.20 261.90 532.63 259.25 534.67 Z" fill="#f6c190" fill-rule="nonzero" node-id="371" stroke="none" target-height="7.7356567" target-width="21.25122" target-x="258.10876" target-y="532.6051"></path><path d="M 275.77 534.00 C 278.61 531.42 283.28 530.50 293.21 530.16 C 299.76 529.94 299.68 530.28 300.75 529.76 C 305.11 527.63 304.27 523.09 309.52 515.90 C 311.69 512.73 314.54 510.09 317.87 508.16 C 320.92 506.49 326.71 504.29 329.04 506.53 C 329.38 508.41 329.19 509.61 330.71 511.42 C 332.71 513.73 337.45 514.20 339.71 512.23 C 341.71 510.50 342.06 508.23 342.85 506.91 C 343.92 506.74 345.00 506.71 346.08 506.81 L 346.84 506.88 C 350.24 507.37 353.49 508.65 356.31 510.62 C 357.72 511.62 359.37 513.07 363.76 519.36 C 370.76 528.64 369.46 529.54 372.69 530.95 C 377.03 532.86 382.34 530.89 383.42 530.55 C 388.42 528.96 390.11 527.55 393.11 528.03 C 396.11 528.51 399.26 532.18 399.00 535.36 C 398.37 542.84 378.30 551.48 369.07 545.36 C 365.59 543.06 362.15 540.73 358.75 538.36 C 355.85 536.36 354.36 534.60 353.33 535.12 C 351.87 535.85 352.76 540.23 353.33 543.61 C 356.03 558.61 357.33 566.14 354.75 569.70 C 352.59 572.63 346.11 572.70 333.15 572.70 C 316.54 572.81 314.38 570.51 313.66 569.58 C 312.58 568.20 311.78 566.13 313.59 552.12 C 314.42 545.72 315.33 540.41 316.04 536.63 C 314.37 539.96 311.84 542.78 308.70 544.79 C 306.98 545.85 305.20 546.56 285.70 546.21 C 285.70 546.21 274.99 546.02 273.16 542.75 C 273.11 542.66 273.08 542.57 273.05 542.47 L 273.05 542.47 C 272.27 540.30 273.05 538.07 274.05 536.12 C 274.50 535.32 275.08 534.61 275.77 534.00 Z" fill="#2c6ff4" fill-rule="nonzero" node-id="373" stroke="none" target-height="67.114105" target-width="126.263855" target-x="272.73615" target-y="505.5859"></path></svg>