<?xml version="1.0" standalone="no"?><!DOCTYPE svg PUBLIC "-//W3C//DTD SVG 1.1//EN" "http://www.w3.org/Graphics/SVG/1.1/DTD/svg11.dtd"><svg class="icon" width="200px" height="200.00px" viewBox="0 0 1024 1024" version="1.1" xmlns="http://www.w3.org/2000/svg"><path d="M300.05592 0h423.88816c200.041092 0 300.05592 100.014829 300.05592 300.05592v423.88816c0 200.041092-100.014829 300.05592-300.05592 300.05592H300.05592C100.014829 1024 0 923.973737 0 723.94408V300.05592C0 100.014829 100.014829 0 300.05592 0z" fill="#46CE7D" opacity=".15" /><path d="M312.507749 660.987449v73.053017c0 21.885033 17.745857 39.63089 39.630891 39.63089H671.872795c21.885033 0 39.63089-17.745857 39.63089-39.63089v-73.053017H312.507749zM711.492251 619.824378V289.959534c0-21.885033-17.745857-39.63089-39.630891-39.63089H352.127205c-21.885033 0-39.63089 17.745857-39.63089 39.63089v329.864844h398.995936z" fill="#46CE7D" /><path d="M512 719.530484m-20.581536 0a20.581536 20.581536 0 1 0 41.163072 0 20.581536 20.581536 0 1 0-41.163072 0Z" fill="#FFFFFF" /><path d="M449.489303 274.511948m10.290768 0l104.439858 0q10.290768 0 10.290768 10.290768l0 0q0 10.290768-10.290768 10.290767l-104.439858 0q-10.290768 0-10.290768-10.290767l0 0q0-10.290768 10.290768-10.290768Z" fill="#FFFFFF" /></svg>