<?xml version="1.0" standalone="no"?><!DOCTYPE svg PUBLIC "-//W3C//DTD SVG 1.1//EN" "http://www.w3.org/Graphics/SVG/1.1/DTD/svg11.dtd"><svg class="icon" width="200px" height="200.00px" viewBox="0 0 1024 1024" version="1.1" xmlns="http://www.w3.org/2000/svg"><path fill="#1296db" d="M130 129m44 0l678 0q44 0 44 44l0 0q0 44-44 44l-678 0q-44 0-44-44l0 0q0-44 44-44Z"  /><path fill="#1296db" d="M130 468m44 0l678 0q44 0 44 44l0 0q0 44-44 44l-678 0q-44 0-44-44l0 0q0-44 44-44Z"  /><path fill="#1296db" d="M130 807m44 0l678 0q44 0 44 44l0 0q0 44-44 44l-678 0q-44 0-44-44l0 0q0-44 44-44Z"  /></svg>