<?xml version="1.0" standalone="no"?><!DOCTYPE svg PUBLIC "-//W3C//DTD SVG 1.1//EN" "http://www.w3.org/Graphics/SVG/1.1/DTD/svg11.dtd"><svg t="1683021345280" class="icon" viewBox="0 0 1024 1024" version="1.1" xmlns="http://www.w3.org/2000/svg" p-id="1288" xmlns:xlink="http://www.w3.org/1999/xlink" width="200" height="200"><path d="M300.05592 0h423.88816c200.041092 0 300.05592 100.014829 300.05592 300.05592v423.88816c0 200.041092-100.014829 300.05592-300.05592 300.05592H300.05592C100.014829 1024 0 923.973737 0 723.94408V300.05592C0 100.014829 100.014829 0 300.05592 0z" fill="#598BFC" opacity=".15" p-id="1289"></path><path d="M512.011434 435.676806m-139.256956 0a139.256957 139.256957 0 1 0 278.513913 0 139.256957 139.256957 0 1 0-278.513913 0Z" fill="#377FFC" p-id="1290"></path><path d="M318.567868 790.582518h398.572871c6.300237 0 11.38845-5.236857 11.091161-11.52566-3.521729-76.346063-47.691992-142.081201-111.368976-176.052168-4.527938-2.412613-10.084952-1.715128-13.823932 1.795167-23.600161 22.20519-55.387199 35.823306-90.352941 35.823306s-63.539774-12.268882-86.71687-32.53026a11.93386 11.93386 0 0 0-13.881102-1.326366c-60.018045 34.920005-101.203984 98.631292-104.622806 172.221716-0.297289 6.311671 4.77949 11.582831 11.102595 11.582831zM324.296396 390.363125c-31.592657 0-57.193801 25.601143-57.193801 57.1938s25.601143 57.193801 57.193801 57.193801V390.363125zM699.703604 504.750726c31.592657 0 57.193801-25.601143 57.193801-57.193801s-25.601143-57.193801-57.193801-57.1938v114.387601z" fill="#377FFC" p-id="1291"></path><path d="M664.48631 561.89879l-12.78342-18.13462c10.039216-7.077761 19.563893-23.520121 27.522087-47.554781 29.946134-90.387244-13.961142-189.681719-99.957658-226.053866-22.811202-9.650453-47.040243-14.544285-72.035375-14.544285-102.050114 0-185.073742 83.023628-185.073741 185.073741h-22.193756c0-114.284693 92.982804-207.267497 207.267497-207.267497 27.979454 0 55.124213 5.476975 80.67962 16.293715 47.280361 19.998392 84.761624 57.113761 105.560409 104.519899 20.638707 47.028809 23.05132 99.934789 6.814775 148.96458-9.604717 28.985663-21.644915 48.732503-35.800438 58.714548z" fill="#377FFC" p-id="1292"></path><path d="M649.061593 563.51101m-22.193756 0a22.193756 22.193756 0 1 0 44.387512 0 22.193756 22.193756 0 1 0-44.387512 0Z" fill="#377FFC" p-id="1293"></path><path d="M512 552.419849c-31.535486 0-56.244763-18.7635-56.244763-42.729555 0-6.128724 4.973871-11.102595 11.102595-11.102595s11.102595 4.973871 11.102595 11.102595c0 9.707624 13.98401 20.535799 34.039573 20.535799s34.051007-10.81674 34.051007-20.535799c0-6.128724 4.973871-11.102595 11.102595-11.102595s11.102595 4.973871 11.102595 11.102595c0 23.954621-24.709277 42.729555-56.244763 42.729555z" fill="#FFFFFF" p-id="1294"></path></svg>