<?xml version="1.0" standalone="no"?><!DOCTYPE svg PUBLIC "-//W3C//DTD SVG 1.1//EN" "http://www.w3.org/Graphics/SVG/1.1/DTD/svg11.dtd"><svg t="1682152805429" class="icon" viewBox="0 0 1024 1024" version="1.1" xmlns="http://www.w3.org/2000/svg" p-id="6665" xmlns:xlink="http://www.w3.org/1999/xlink" width="200" height="200"><path d="M12.25728 512.3072a499.46112 499.46112 0 0 0 308.30592 461.44 499.4816 499.4816 0 0 0 382.26432 0 499.42016 499.42016 0 0 0 308.30592-461.44 499.38432 499.38432 0 0 0-146.2784-353.16736 499.42016 499.42016 0 0 0-706.32448 0 499.44064 499.44064 0 0 0-146.2784 353.16736z" fill="#FFFFFF" p-id="6666"></path><path d="M12.25728 512.3072a499.46112 499.46112 0 0 0 308.30592 461.44 499.4816 499.4816 0 0 0 382.26432 0 499.42016 499.42016 0 0 0 308.30592-461.44 499.38432 499.38432 0 0 0-146.2784-353.16736 499.42016 499.42016 0 0 0-706.32448 0 499.44064 499.44064 0 0 0-146.2784 353.16736z" fill="#6578F6" fill-opacity=".1" p-id="6667"></path><path d="M908.79488 766.62272c9.1904-14.09536 15.92832-26.35264 23.89504-41.67168 1.83808-3.06688 3.68128-6.74304 4.90496-10.4192a522.32704 522.32704 0 0 0 14.70464-34.31936c2.45248-4.89984 3.68128-9.1904 5.51936-14.70464 3.67616-11.64288 6.73792-22.06208 10.41408-33.70496 1.2288-5.51424 3.67616-10.4192 4.90496-15.93344 2.45248-11.64288 4.89984-23.90016 6.73792-35.54304 1.2288-4.89984 1.8432-9.8048 2.45248-14.70464 2.45248-17.77152 3.67616-35.54304 3.67616-52.70528 0-260.43904-211.41504-471.8592-471.8592-471.8592-260.44416 0-471.8592 211.42016-471.8592 471.8592 0 17.77152 1.22368 35.54304 3.67616 52.70528 1.2288 5.51424 1.2288 10.41408 2.44736 15.93344 1.2288 10.41408 3.68128 23.28576 5.51936 34.31424 0.6144 5.51424 2.44736 11.0336 4.89984 15.93344 3.67616 11.64288 6.74304 23.28576 10.4192 33.70496 1.83808 4.89984 3.67616 10.4192 5.51424 14.70464a339.29216 339.29216 0 0 0 14.70976 34.31936c1.22368 3.67616 3.67616 6.74304 4.89984 10.4192 7.35232 14.09536 15.31904 28.1856 23.90016 41.67168l1.2288 1.22368c139.71456 217.5488 429.57312 281.27744 647.12192 141.55776 56.99072-36.15744 104.79104-84.56704 141.55776-141.55776l0.6144-1.22368z m-395.264-501.27872c95.60064 0 173.42464 77.824 173.42464 173.42464s-77.824 173.42464-173.42464 173.42464c-95.59552 0-173.42464-77.824-173.42464-173.42464v-0.6144c0.6144-95.59552 77.824-172.81024 173.42464-172.81024zM227.3536 806.4512c68.6336-158.10048 252.47232-230.41536 410.57792-161.77664 72.30976 31.25248 130.52928 89.46688 161.78176 161.77664-76.60032 74.76224-179.55328 116.43392-286.1824 116.43392-107.2384 0.6144-209.57696-41.05728-286.17728-116.43392z" fill="#6578F6" p-id="6668"> </path></svg>