<?xml version="1.0" standalone="no"?><!DOCTYPE svg PUBLIC "-//W3C//DTD SVG 1.1//EN" "http://www.w3.org/Graphics/SVG/1.1/DTD/svg11.dtd"><svg t="1684850424447" class="icon" viewBox="0 0 1024 1024" version="1.1" xmlns="http://www.w3.org/2000/svg" p-id="2831" xmlns:xlink="http://www.w3.org/1999/xlink" width="200" height="200"><path d="M0 0h1024v1024H0z" fill="#1296db" opacity=".01" p-id="2832"></path><path d="M319.573333 480.768l429.141334 429.141333a33.536 33.536 0 0 1 0 47.36l-4.565334 4.608a33.536 33.536 0 0 1-47.402666 0L267.605333 532.778667a33.536 33.536 0 0 1 0-47.445334l4.608-4.565333a33.536 33.536 0 0 1 47.36 0z" fill="#1296db" p-id="2833"></path><path d="M748.714667 100.906667L319.616 530.048a33.536 33.536 0 0 1-47.402667 0l-4.608-4.608a33.536 33.536 0 0 1 0-47.36L696.746667 48.896a33.536 33.536 0 0 1 47.402666 0l4.565334 4.565333a33.536 33.536 0 0 1 0 47.402667z" fill="#1296db" p-id="2834"></path></svg>