<?xml version="1.0" standalone="no"?><!DOCTYPE svg PUBLIC "-//W3C//DTD SVG 1.1//EN" "http://www.w3.org/Graphics/SVG/1.1/DTD/svg11.dtd"><svg class="icon" width="200px" height="200.00px" viewBox="0 0 1024 1024" version="1.1" xmlns="http://www.w3.org/2000/svg"><path fill="#1296db" d="M511.98464 407.2704a20.9408 20.9408 0 0 1 20.9408 20.94592v293.23776a20.9408 20.9408 0 0 1-41.88672 0V428.21632a20.9408 20.9408 0 0 1 20.9408-20.9408z m0-146.61632a20.9408 20.9408 0 0 1 20.9408 20.9408V281.6a20.9408 20.9408 0 0 1-41.88672 0 20.9408 20.9408 0 0 1 20.9408-20.9408z m0 712.14592C257.50016 972.8 51.2 766.49472 51.2 512s206.30016-460.8 460.78464-460.8h439.83872c21.72928 0 29.0816 29.0048 9.97888 39.36256-86.1952 46.71488-101.41184 117.8112-80.2816 146.1248 58.90048 78.9504 91.24352 174.70976 91.24352 275.31264 0 254.49472-206.29504 460.8-460.77952 460.8z m0-879.70816c-231.35232 0-418.8928 187.55072-418.8928 418.90816s187.5456 418.90816 418.8928 418.90816c231.3472 0 418.8928-187.55072 418.8928-418.90816 0-91.4944-29.38368-178.48832-82.93376-250.26048-29.10208-38.99904-21.10464-111.1808 39.12704-168.6528h-375.0912z"  /></svg>