<?xml version="1.0" standalone="no"?><!DOCTYPE svg PUBLIC "-//W3C//DTD SVG 1.1//EN" "http://www.w3.org/Graphics/SVG/1.1/DTD/svg11.dtd"><svg height="1024" legacy-metrics="false" node-id="1" sillyvg="true" template-height="1024" template-width="1024" version="1.1" viewBox="0 0 1024 1024" width="1024" xmlns="http://www.w3.org/2000/svg" xmlns:xlink="http://www.w3.org/1999/xlink"><defs node-id="65"><linearGradient gradientUnits="userSpaceOnUse" id="未命名的渐变_8" node-id="5" x1="2587.38" x2="-1826.7" y1="512" y2="512"><stop offset="0" stop-color="#fedb5a"></stop><stop offset="0.06" stop-color="#fee37e"></stop><stop offset="0.16" stop-color="#feedac"></stop><stop offset="0.25" stop-color="#fff5d0"></stop><stop offset="0.33"  stop-color="#fffaea"></stop><stop offset="0.4" stop-color="#fffefa"></stop><stop offset="0.46" stop-color="#ffffff"></stop></linearGradient><linearGradient gradientUnits="userSpaceOnUse" id="未命名的渐变_13" node-id="13" x1="467.49" x2="885.99" y1="1961.33" y2="1961.33"><stop offset="0" stop-color="#fedb5a"></stop><stop offset="1" stop-color="#feda5b"></stop></linearGradient><linearGradient gradientUnits="userSpaceOnUse" id="未命名的渐变_25" node-id="16" x1="467" x2="876.94" y1="1965.61" y2="1965.61"><stop offset="0" stop-color="#fedb5a"></stop><stop offset="1" stop-color="#f2b446"></stop></linearGradient><linearGradient gradientUnits="userSpaceOnUse" id="未命名的渐变_10" node-id="19" x1="671.99" x2="671.99" y1="-4926.27" y2="-5528.97"><stop offset="0" stop-color="#fedb5a"></stop><stop offset="0.61" stop-color="#f2e8c4"></stop></linearGradient><linearGradient gradientUnits="userSpaceOnUse" id="未命名的渐变_12" node-id="22" x1="551.29" x2="590.72" y1="1796.78" y2="1796.78"><stop offset="0" stop-color="#fedb5a"></stop><stop offset="1" stop-color="#fedb5a"></stop></linearGradient><linearGradient gradientUnits="userSpaceOnUse" id="未命名的渐变_25-2" node-id="25" x1="547.59" x2="587.02" y1="1796.78" y2="1796.78"><stop offset="0" stop-color="#fedb5a"></stop><stop offset="1" stop-color="#f2b446"></stop></linearGradient><linearGradient gradientUnits="userSpaceOnUse" id="未命名的渐变_12-2" node-id="26" x1="751.67" x2="791.1" y1="1796.78" y2="1796.78"><stop offset="0" stop-color="#fedb5a"></stop><stop offset="1" stop-color="#fedb5a"></stop></linearGradient><linearGradient gradientUnits="userSpaceOnUse" id="未命名的渐变_25-3" node-id="27" x1="747.97" x2="787.4" y1="1796.78" y2="1796.78"><stop offset="0" stop-color="#fedb5a"></stop><stop offset="1" stop-color="#f2b446"></stop></linearGradient><linearGradient gradientUnits="userSpaceOnUse" id="未命名的渐变_8-2" node-id="28" x1="1624.16" x2="-574.13" y1="1996.17" y2="1996.17"><stop offset="0" stop-color="#fedb5a"></stop><stop offset="0.06" stop-color="#fee37e"></stop><stop offset="0.16" stop-color="#feedac"></stop><stop offset="0.25" stop-color="#fff5d0"></stop><stop offset="0.33" stop-color="#fffaea"></stop><stop offset="0.4" stop-color="#fffefa"></stop><stop offset="0.46" stop-color="#ffffff"></stop></linearGradient><clipPath id="clip-path" node-id="29"><path d="M 467.89 468.28 L 845.57 468.28 C 845.57 468.28 795.43 601.61 551.11 585.18 C 551.11 585.18 382.72 572.78 335.60 534.94 C 335.60 535.00 405.76 543.21 467.89 468.28 Z" fill="#000000" fill-rule="nonzero" node-id="142" stroke="none" target-height="118.28409" target-width="509.97" target-x="335.6" target-y="468.28"></path></clipPath><linearGradient gradientUnits="userSpaceOnUse" id="未命名的渐变_10-2" node-id="31" x1="694.55" x2="696.79" y1="2003.17" y2="2368.37"><stop offset="0" stop-color="#fedb5a"></stop><stop offset="0.61" stop-color="#f2e8c4"></stop></linearGradient><linearGradient gradientUnits="userSpaceOnUse" id="未命名的渐变_25-4" node-id="32" x1="226.37" x2="248.94" y1="2105.56" y2="2105.56"><stop offset="0" stop-color="#fedb5a"></stop><stop offset="1" stop-color="#f2b446"></stop></linearGradient><linearGradient gradientUnits="userSpaceOnUse" id="未命名的渐变_25-5" node-id="33" x1="228.4" x2="285.72" y1="2141.73" y2="2141.73"><stop offset="0" stop-color="#fedb5a"></stop><stop offset="1" stop-color="#f2b446"></stop></linearGradient><linearGradient gradientUnits="userSpaceOnUse" id="未命名的渐变_25-6" node-id="34" x1="186.03" x2="228.02" y1="2142.01" y2="2142.01"><stop offset="0" stop-color="#fedb5a"></stop><stop offset="1" stop-color="#f2b446"></stop></linearGradient><linearGradient gradientUnits="userSpaceOnUse" id="未命名的渐变_25-7" node-id="35" x1="196.86" x2="255.54" y1="2221.76" y2="2221.76"><stop offset="0" stop-color="#fedb5a"></stop><stop offset="1" stop-color="#f2b446"></stop></linearGradient></defs><path d="M 0.00 0.00 L 1024.00 0.00 L 1024.00 1024.00 L 0.00 1024.00 Z" fill="url(#未命名的渐变_8)" fill-rule="nonzero" node-id="176" stroke="none" target-height="1024" target-width="1024" target-x="0" target-y="0"></path><g node-id="239"><path d="M 268.00 771.09 C 241.05 779.47 215.42 791.21 186.00 792.66 C 118.55 795.99 47.12 759.66 21.47 694.91 C 3.43 649.32 10.60 600.00 36.16 558.83 C 54.00 530.11 85.73 510.33 103.00 480.45 C 112.71 463.62 112.85 446.70 116.69 428.33 C 121.90 403.33 133.22 379.03 145.89 357.03 C 176.54 303.79 224.58 260.91 281.49 237.54 C 332.13 216.70 387.93 211.86 441.40 223.66 C 468.09 229.70 493.85 239.28 518.00 252.13 C 536.43 261.83 562.41 294.95 584.32 292.70 C 590.12 292.10 595.32 288.93 600.32 285.99 C 646.60 258.99 707.15 244.59 760.04 263.44 C 785.76 272.60 798.55 295.21 801.04 321.44 C 803.13 344.01 781.37 371.57 793.65 393.33 C 798.35 401.65 808.09 405.39 816.91 409.08 C 847.38 421.82 871.47 443.99 898.01 462.65 C 924.76 481.47 958.34 490.96 981.16 515.29 C 1015.46 551.87 1019.45 609.95 1003.80 655.69 C 989.60 697.21 943.74 728.57 905.57 746.94 C 870.57 768.56 832.36 784.49 792.36 794.11 C 707.09 814.54 635.24 800.82 597.68 790.67 C 546.49 774.18 493.52 763.81 439.88 759.79 C 392.62 756.22 345.00 757.16 298.00 764.00 C 287.83 765.57 277.80 767.95 268.00 771.09 Z" fill="#ffecbb" fill-opacity="0.5" fill-rule="nonzero" group-id="1" node-id="180" stroke-linecap="butt" stroke-opacity="0.5" stroke-width="1" target-height="587.2655" target-width="1001.0539" target-x="11.450773" target-y="217.38263"></path></g><g node-id="240"><path d="M 922.65 675.01 C 922.65 700.60 826.39 721.34 707.64 721.34 C 588.89 721.34 492.63 700.60 492.63 675.01 C 492.63 649.42 588.89 628.68 707.64 628.68 C 826.39 628.68 922.65 649.42 922.65 675.01 Z" fill="#fce5b4" fill-opacity="0.5" fill-rule="nonzero" group-id="2" node-id="185" stroke-linecap="butt" stroke-opacity="0.5" stroke-width="1" target-height="92.660034" target-width="430.02002" target-x="492.63" target-y="628.68"></path></g><path d="M 836.14 667.74 L 526.51 667.74 C 499.00 667.74 476.66 645.00 476.66 617.00 L 467.49 372.20 C 467.49 344.20 498.98 317.46 526.49 317.46 L 836.14 317.46 C 863.67 317.46 885.99 340.17 885.99 368.19 L 885.99 617.00 C 886.00 645.00 863.67 667.74 836.14 667.74 Z" fill="url(#未命名的渐变_13)" fill-rule="nonzero" node-id="188" stroke="none" target-height="350.28" target-width="418.5" target-x="467.49" target-y="317.46"></path><path d="M 479.99 325.33 L 863.95 325.33 C 871.12 325.33 876.94 331.15 876.94 338.32 L 876.94 655.42 C 876.94 662.59 871.12 668.41 863.95 668.41 L 479.99 668.41 C 472.82 668.41 467.00 662.59 467.00 655.42 L 467.00 338.32 C 467.00 331.15 472.82 325.33 479.99 325.33 Z" fill="url(#未命名的渐变_25)" fill-rule="nonzero" node-id="190" stroke="none" target-height="343.08" target-width="409.94" target-x="467" target-y="325.33"></path><path d="M 506.80 350.80 L 837.56 350.80 C 842.40 350.80 846.32 354.72 846.32 359.56 L 846.32 359.56 L 846.32 438.56 L 498.00 438.56 L 498.00 359.56 C 498.00 354.72 501.92 350.80 506.76 350.80 Z" fill="#ffffff" fill-rule="nonzero" node-id="192" stroke="none" target-height="87.76001" target-width="348.32" target-x="498" target-y="350.8"></path><path d="M 497.82 468.22 L 846.17 468.22 L 846.17 617.43 C 846.17 620.58 844.92 623.60 842.70 625.83 C 840.47 628.05 837.45 629.30 834.30 629.30 L 509.69 629.30 C 506.54 629.30 503.52 628.05 501.29 625.83 C 499.07 623.60 497.82 620.58 497.82 617.43 L 497.82 468.22 Z" fill="url(#未命名的渐变_10)" fill-rule="nonzero" node-id="194" stroke="none" target-height="161.07999" target-width="348.34998" target-x="497.82" target-y="468.22"></path><path d="M 556.65 286.94 L 585.36 286.94 C 588.32 286.94 590.72 289.34 590.72 292.30 L 590.72 363.78 C 590.72 366.74 588.32 369.14 585.36 369.14 L 556.65 369.14 C 553.69 369.14 551.29 366.74 551.29 363.78 L 551.29 292.30 C 551.29 289.34 553.69 286.94 556.65 286.94 Z" fill="url(#未命名的渐变_12)" fill-rule="nonzero" node-id="196" stroke="none" target-height="82.20001" target-width="39.429993" target-x="551.29" target-y="286.94"></path><path d="M 552.95 287.62 L 581.66 287.62 C 584.62 287.62 587.02 290.02 587.02 292.98 L 587.02 363.10 C 587.02 366.06 584.62 368.46 581.66 368.46 L 552.95 368.46 C 549.99 368.46 547.59 366.06 547.59 363.10 L 547.59 292.98 C 547.59 290.02 549.99 287.62 552.95 287.62 Z" fill="url(#未命名的渐变_25-2)" fill-rule="nonzero" node-id="198" stroke="none" target-height="80.84" target-width="39.429993" target-x="547.59" target-y="287.62"></path><path d="M 757.03 286.94 L 785.74 286.94 C 788.70 286.94 791.10 289.34 791.10 292.30 L 791.10 363.78 C 791.10 366.74 788.70 369.14 785.74 369.14 L 757.03 369.14 C 754.07 369.14 751.67 366.74 751.67 363.78 L 751.67 292.30 C 751.67 289.34 754.07 286.94 757.03 286.94 Z" fill="url(#未命名的渐变_12-2)" fill-rule="nonzero" node-id="200" stroke="none" target-height="82.20001" target-width="39.429993" target-x="751.67" target-y="286.94"></path><path d="M 753.33 287.62 L 782.04 287.62 C 785.00 287.62 787.40 290.02 787.40 292.98 L 787.40 363.10 C 787.40 366.06 785.00 368.46 782.04 368.46 L 753.33 368.46 C 750.37 368.46 747.97 366.06 747.97 363.10 L 747.97 292.98 C 747.97 290.02 750.37 287.62 753.33 287.62 Z" fill="url(#未命名的渐变_25-3)" fill-rule="nonzero" node-id="202" stroke="none" target-height="80.84" target-width="39.430054" target-x="747.97" target-y="287.62"></path><path d="M 467.89 468.28 L 845.57 468.28 C 845.57 468.28 795.43 601.61 551.11 585.18 C 551.11 585.18 382.72 572.78 335.60 534.94 C 335.60 535.00 405.76 543.21 467.89 468.28 Z" fill="url(#未命名的渐变_8-2)" fill-rule="nonzero" node-id="204" stroke="none" target-height="118.28409" target-width="509.97" target-x="335.6" target-y="468.28"></path><g clip-path="url(#clip-path)" group-id="3" id="sillyvg_g_0" node-id="206"><path d="M 669.22 526.45 C 669.22 526.45 754.44 557.00 845.57 468.28 C 936.70 379.56 818.49 573.77 818.49 573.77 L 689.26 626.00 L 508.94 604.33 C 508.94 604.33 685.25 599.40 669.22 526.45 Z" fill="url(#未命名的渐变_10-2)" fill-rule="nonzero" group-id="3" node-id="208" stroke="none" target-height="180.91138" target-width="371.12054" target-x="508.94" target-y="445.08862"></path></g><path d="M 226.37 663.79 C 226.72 662.79 241.30 605.46 248.59 608.59 C 248.59 608.59 253.45 642.59 226.72 665.18" fill="url(#未命名的渐变_25-4)" fill-rule="nonzero" node-id="211" stroke="none" target-height="56.657288" target-width="22.56015" target-x="226.37" target-y="608.5227"></path><path d="M 247.69 671.19 C 249.00 665.40 249.90 659.51 251.94 653.89 C 254.39 647.13 258.67 637.77 267.13 637.78 C 274.46 637.78 280.22 644.45 283.33 650.43 C 287.55 658.52 285.56 665.65 282.15 673.75 C 280.21 678.65 277.12 683.01 273.15 686.47 C 270.50 688.63 267.42 690.22 264.78 692.40 C 262.14 694.58 260.34 697.63 257.71 699.90 C 250.00 706.56 237.00 713.59 230.00 702.11 C 222.37 689.60 244.08 685.11 246.86 674.72 C 247.14 673.55 247.42 672.37 247.69 671.19 Z" fill="url(#未命名的渐变_25-5)" fill-rule="nonzero" node-id="213" stroke="none" target-height="70.41797" target-width="57.281067" target-x="228.37631" target-y="637.78"></path><path d="M 267.00 659.51 C 261.07 668.51 252.16 681.44 245.93 690.51 C 242.39 695.62 238.67 700.78 233.84 704.79 C 229.29 708.91 225.84 714.79 226.26 721.13 C 225.68 714.79 229.01 708.71 233.56 704.48 C 238.31 700.43 241.98 695.34 245.49 690.20 C 250.81 682.55 261.61 667.20 267.00 659.56 Z" fill="#ffe183" fill-rule="nonzero" node-id="215" stroke="none" target-height="61.619995" target-width="40.740005" target-x="226.26" target-y="659.51"></path><path d="M 195.70 676.00 C 200.28 686.15 205.91 696.00 213.50 704.22 C 217.60 708.76 223.10 712.15 226.33 717.43 C 226.60 717.97 226.62 718.72 225.79 718.59 C 226.06 718.59 226.40 718.59 226.46 718.25 C 226.32 717.43 225.92 716.67 225.33 716.09 C 223.08 713.60 220.65 711.28 218.06 709.15 C 214.61 706.26 211.49 703.01 208.75 699.44 C 203.34 692.26 198.95 684.38 195.70 676.00 Z" fill="#ffe183" fill-rule="nonzero" node-id="217" stroke="none" target-height="42.590027" target-width="30.772507" target-x="195.7" target-y="676"></path><path d="M 186.45 598.17 C 191.45 602.69 195.45 608.27 199.24 613.79 C 201.14 616.58 203.00 619.39 204.96 622.11 C 206.92 624.83 208.89 627.59 210.80 630.38 C 214.71 635.92 218.09 641.82 220.88 648.00 C 222.24 651.12 223.35 654.34 224.20 657.63 C 225.02 660.93 225.56 664.30 225.82 667.69 C 226.96 681.25 225.21 694.69 224.97 708.15 C 224.97 711.51 224.92 714.87 225.15 718.22 C 225.38 721.57 225.79 724.90 226.15 728.22 C 226.64 731.56 226.89 734.94 226.90 738.32 C 226.90 741.68 226.67 745.07 227.37 748.38 C 226.57 745.09 226.67 741.67 226.59 738.32 C 226.50 734.97 226.17 731.62 225.59 728.32 C 225.12 724.98 224.59 721.64 224.37 718.26 C 224.15 714.88 224.03 711.51 224.02 708.13 C 224.02 694.62 225.81 681.13 224.58 667.79 C 224.34 664.46 223.83 661.16 223.05 657.91 C 222.24 654.67 221.16 651.51 219.84 648.44 C 217.09 642.32 213.79 636.45 210.00 630.91 C 208.15 628.10 206.23 625.34 204.31 622.56 C 202.39 619.78 200.57 616.95 198.73 614.13 C 195.07 608.50 191.33 602.84 186.45 598.17 Z" fill="url(#未命名的渐变_25-6)" fill-rule="nonzero" node-id="219" stroke="none" target-height="150.21002" target-width="40.92" target-x="186.45" target-y="598.17"></path><path d="M 196.86 739.48 L 255.54 739.83 C 254.13 755.05 241.32 766.66 226.04 766.57 C 210.76 766.48 198.09 754.71 196.86 739.48 Z" fill="url(#未命名的渐变_25-7)" fill-rule="nonzero" node-id="221" stroke="none" target-height="27.087585" target-width="58.679993" target-x="196.86" target-y="739.48"></path><path d="M 411.39 502.49 C 409.39 503.03 409.72 504.13 406.17 506.02 C 403.06 507.68 401.92 507.32 400.70 508.84 C 399.24 510.67 399.35 513.06 399.42 514.33 C 399.54 516.91 400.42 517.43 401.24 520.33 C 402.49 524.75 401.02 525.67 402.24 530.46 C 402.81 532.66 403.58 535.61 405.61 536.18 C 407.04 536.41 408.50 535.92 409.51 534.88 C 414.67 530.05 406.33 516.88 411.07 513.06 C 411.32 512.85 411.14 513.06 419.32 509.27 C 420.59 508.68 421.22 508.38 421.32 507.78 C 421.82 505.67 415.83 501.27 411.39 502.49 Z" fill="#f6c190" fill-rule="nonzero" node-id="223" stroke="none" target-height="33.93872" target-width="21.899994" target-x="399.42" target-y="502.2804"></path><path d="M 374.32 488.29 C 372.51 488.58 372.62 489.94 369.10 491.82 C 365.99 493.47 364.85 493.12 363.63 494.64 C 362.17 496.46 362.29 498.86 362.35 500.13 C 362.37 500.68 362.45 501.23 362.58 501.77 C 362.99 503.26 363.52 504.71 364.17 506.11 C 365.01 508.30 364.17 508.46 364.95 513.04 C 365.08 514.31 365.37 515.56 365.81 516.76 C 366.13 517.51 367.69 521.19 370.58 521.61 C 372.00 521.75 373.42 521.28 374.47 520.31 C 379.63 515.48 369.30 502.71 374.04 498.83 C 374.48 498.56 374.95 498.34 375.44 498.17 C 377.05 497.45 381.67 496.65 382.29 495.04 C 383.09 493.00 378.22 487.65 374.32 488.29 Z" fill="#f6c190" fill-rule="nonzero" node-id="225" stroke="none" target-height="33.319977" target-width="19.997772" target-x="362.35" target-y="488.29"></path><path d="M 496.35 328.41 L 500.77 331.01 C 500.77 331.01 510.23 328.41 510.54 324.20 C 510.79 320.94 508.15 317.12 505.28 315.87 C 501.46 314.22 499.80 320.24 498.66 322.77 C 497.83 324.62 497.05 326.51 496.35 328.41 Z" fill="#f6c190" fill-rule="nonzero" node-id="227" stroke="none" target-height="15.420349" target-width="14.190002" target-x="496.35" target-y="315.58966"></path><path d="M 377.35 408.78 C 377.35 408.78 365.05 421.25 374.75 423.33 C 384.45 425.41 382.75 411.03 382.75 411.03 Z" fill="#f6c190" fill-rule="nonzero" node-id="229" stroke="none" target-height="14.746918" target-width="11.802521" target-x="371.0467" target-y="408.78"></path><path d="M 444.13 332.65 C 444.13 332.65 450.13 327.97 443.35 324.08 C 443.35 324.08 433.22 320.70 431.14 330.57 C 431.14 330.57 411.14 342.00 434.00 353.18 L 435.55 351.36 C 435.55 351.36 429.55 343.04 436.33 343.04 L 435.55 339.41 C 438.60 337.41 441.47 335.15 444.13 332.65 Z" fill="#68370e" fill-rule="nonzero" node-id="231" stroke="none" target-height="29.646942" target-width="23.484741" target-x="423.09106" target-y="323.53305"></path><path d="M 439.54 332.91 C 439.54 332.91 455.30 341.75 450.45 349.02 C 450.45 349.02 449.93 350.93 445.45 352.48 C 445.45 352.48 446.66 359.24 450.12 359.41 C 450.12 359.41 443.89 368.25 437.48 365.13 C 437.48 365.13 432.80 349.54 430.20 346.77 C 427.60 344.00 439.54 332.91 439.54 332.91 Z" fill="#f6c190" fill-rule="nonzero" node-id="233" stroke="none" target-height="32.890686" target-width="21.536133" target-x="429.8518" target-y="332.91"></path><path d="M 429.66 399.08 C 429.04 399.21 427.61 401.71 427.24 402.20 C 425.31 404.69 423.49 407.26 421.76 409.90 C 416.17 418.40 411.68 427.56 408.38 437.18 C 406.45 442.85 405.75 448.42 401.14 452.77 C 395.58 458.03 390.00 463.28 384.57 468.68 C 381.33 471.91 378.03 475.09 375.03 478.55 C 369.90 484.48 367.03 491.19 371.12 498.69 C 372.05 500.39 374.17 502.86 376.24 503.18 C 378.90 503.60 382.45 499.39 384.38 497.86 C 391.31 492.35 398.03 486.60 404.54 480.59 C 415.68 470.28 423.43 457.49 431.73 444.84 C 433.37 442.33 436.30 439.54 436.39 436.36 C 435.04 439.36 435.21 443.44 434.87 446.64 C 434.51 450.02 434.19 453.41 433.96 456.81 C 433.66 461.10 434.65 465.58 431.86 469.11 C 427.39 474.75 422.99 480.41 418.86 486.28 C 416.50 489.60 414.18 492.97 412.11 496.48 C 411.11 498.15 409.58 499.97 409.25 502.00 C 408.92 504.03 410.15 505.67 411.10 507.31 C 412.61 509.88 416.10 515.64 419.83 513.75 C 422.06 512.64 423.96 510.51 425.70 508.75 C 428.85 505.62 431.82 502.31 434.70 498.91 C 440.99 491.43 447.34 483.31 451.30 474.30 C 454.77 466.40 455.17 456.62 456.17 448.11 C 457.24 438.93 458.17 429.72 458.63 420.49 C 458.86 416.29 459.04 412.07 458.92 407.86 C 458.86 405.56 458.92 402.75 457.92 400.61 C 454.78 393.88 429.67 399.08 429.66 399.08 Z" fill="#4c3322" fill-rule="nonzero" node-id="235" stroke="none" target-height="116.93417" target-width="89.74411" target-x="369.1759" target-y="397.1641"></path><path d="M 435.18 358.29 C 430.52 359.31 425.99 360.84 421.67 362.84 C 416.04 365.72 410.74 369.19 405.85 373.20 C 398.94 378.86 392.64 385.23 387.05 392.20 C 378.80 402.33 373.00 406.80 374.54 410.20 C 375.29 411.82 377.70 413.38 378.22 413.71 C 379.13 414.29 381.56 415.86 383.76 415.71 C 386.18 415.54 387.42 413.08 388.53 411.26 C 391.71 406.02 395.56 401.23 400.00 397.00 C 404.68 392.80 409.83 389.16 415.36 386.16 L 419.41 383.88 C 420.50 383.26 422.76 382.72 423.41 381.58 C 422.95 382.41 423.35 384.85 423.35 385.79 L 423.35 391.64 C 423.35 393.55 423.35 395.47 423.42 397.38 C 423.51 398.95 423.58 401.18 424.53 402.51 C 424.74 402.79 424.97 403.04 425.23 403.27 C 432.23 409.81 442.23 413.05 451.63 410.14 C 453.36 409.69 455.04 409.05 456.63 408.22 C 458.53 407.11 459.44 404.96 460.17 402.99 C 461.06 400.61 461.99 398.25 462.70 395.80 C 464.62 389.55 465.30 382.98 464.70 376.46 C 469.57 374.79 474.21 372.52 478.52 369.71 C 484.28 366.11 490.14 361.36 492.76 354.90 C 494.65 350.25 496.55 345.60 498.69 341.06 C 500.25 337.77 503.49 333.43 502.69 329.61 C 502.17 327.01 495.59 323.55 494.03 324.76 C 491.42 326.76 489.63 331.24 488.03 334.04 C 486.69 336.41 485.52 339.16 484.24 341.67 C 482.60 344.88 481.55 345.73 478.24 347.02 C 474.93 348.31 471.34 349.47 467.87 350.65 C 464.40 351.83 460.78 353.05 457.36 354.53 C 456.03 355.01 454.75 355.60 453.52 356.30 C 452.37 357.05 449.12 357.30 447.95 358.04 C 448.75 359.49 447.09 362.24 445.54 362.86 C 442.81 363.95 439.75 364.63 437.04 362.13 C 436.15 361.00 435.52 359.69 435.18 358.29 Z" fill="#2c6ff4" fill-rule="nonzero" node-id="237" stroke="none" target-height="91.18991" target-width="128.482" target-x="374.2995" target-y="324.52008"></path></svg>