<?xml version="1.0" standalone="no"?><!DOCTYPE svg PUBLIC "-//W3C//DTD SVG 1.1//EN" "http://www.w3.org/Graphics/SVG/1.1/DTD/svg11.dtd"><svg class="icon" width="200px" height="199.61px" viewBox="0 0 1026 1024" version="1.1" xmlns="http://www.w3.org/2000/svg"><path fill="#1296db" d="M512 77.625806C229.574194 77.625806 0 246.090323 0 452.541935c0 132.129032 92.490323 247.741935 231.225806 313.806452-3.303226 26.425806-21.470968 130.477419-82.580645 175.070968 0 0-6.606452 4.954839 0 11.56129 0 0 8.258065 11.56129 51.2-4.954839 0 0 150.296774-56.154839 184.980645-132.129032 41.290323 8.258065 84.232258 11.56129 128.825806 11.56129 282.425806 0 512-168.464516 512-376.567742C1024 246.090323 794.425806 77.625806 512 77.625806zM330.322581 502.090323c-24.774194-41.290323-47.896774-82.580645-71.019355-122.219355 24.774194-14.864516 46.245161-28.077419 71.019355-41.290323L330.322581 502.090323zM427.767742 609.445161c0 8.258065-8.258065 16.516129-18.167742 16.516129-9.909677 0-18.167742-8.258065-18.167742-18.167742 0-52.851613 0-161.858065 0-161.858065 11.56129 6.606452 23.122581 14.864516 33.032258 23.122581 1.651613 1.651613 3.303226 3.303226 3.303226 4.954839L427.767742 609.445161zM528.516129 647.432258C528.516129 647.432258 528.516129 647.432258 528.516129 647.432258c0 11.56129-8.258065 18.167742-18.167742 18.167742-9.909677 0-18.167742-8.258065-18.167742-18.167742 0-1.651613 0-1.651613 0-1.651613 0-1.651613 0-1.651613 0-1.651613 0-39.63871 0-77.625806 0-117.264516 0-8.258065-1.651613-16.516129-1.651613-24.774194 0-13.212903-4.954839-23.122581-16.516129-29.729032-14.864516-8.258065-31.380645-16.516129-46.245161-26.425806-9.909677-6.606452-18.167742-14.864516-26.425806-23.122581-6.606452-6.606452-11.56129-16.516129-11.56129-28.077419 0-34.683871 0-71.019355 0-105.703226 0-1.651613 0-1.651613 0-1.651613 0-1.651613 0-1.651613 0-3.303226s0-1.651613 0-1.651613c1.651613-8.258065 8.258065-14.864516 18.167742-14.864516 8.258065 0 16.516129 6.606452 18.167742 14.864516 0 1.651613 0 1.651613 0 3.303226L426.116129 396.387097c1.651613 31.380645 16.516129 52.851613 47.896774 62.76129 6.606452 1.651613 14.864516 4.954839 21.470968 6.606452 23.122581 6.606452 33.032258 24.774194 33.032258 46.245161C528.516129 558.245161 528.516129 601.187097 528.516129 647.432258zM632.567742 606.141935 632.567742 606.141935c0 1.651613 0 1.651613 0 1.651613 0 8.258065-8.258065 16.516129-16.516129 16.516129-9.909677 0-18.167742-6.606452-18.167742-16.516129 0-1.651613 0-1.651613 0-3.303226 0-26.425806 0-47.896774 0-77.625806 0-8.258065-1.651613-16.516129-1.651613-24.774194-1.651613-13.212903-6.606452-23.122581-19.819355-29.729032-14.864516-8.258065-29.729032-14.864516-42.941935-24.774194-8.258065-6.606452-18.167742-13.212903-26.425806-21.470968-9.909677-8.258065-14.864516-21.470968-14.864516-34.683871 0-47.896774 0-82.580645 0-142.03871 0-1.651613 0-1.651613 0-3.303226 0-9.909677 8.258065-18.167742 18.167742-18.167742 9.909677 0 16.516129 8.258065 16.516129 18.167742l0 3.303226c0 24.774194 0 118.916129 0 143.690323 1.651613 33.032258 16.516129 52.851613 47.896774 62.76129 6.606452 3.303226 14.864516 4.954839 23.122581 8.258065 21.470968 6.606452 31.380645 23.122581 31.380645 44.593548C632.567742 543.380645 632.567742 574.76129 632.567742 606.141935zM632.567742 459.148387c-11.56129-4.954839-21.470968-11.56129-33.032258-16.516129-1.651613-1.651613-3.303226-4.954839-3.303226-6.606452 0-39.63871 0-79.277419 0-117.264516l0-31.380645c0-8.258065 8.258065-16.516129 18.167742-16.516129 9.909677 0 18.167742 8.258065 18.167742 18.167742C632.567742 345.187097 632.567742 459.148387 632.567742 459.148387zM693.677419 556.593548l0-163.509677c0-1.651613 1.651613-1.651613 1.651613-1.651613 23.122581 39.63871 46.245161 80.929032 71.019355 122.219355C741.574194 528.516129 718.451613 543.380645 693.677419 556.593548z"  /></svg>