<?xml version="1.0" standalone="no"?><!DOCTYPE svg PUBLIC "-//W3C//DTD SVG 1.1//EN" "http://www.w3.org/Graphics/SVG/1.1/DTD/svg11.dtd"><svg class="icon" width="200px" height="200.00px" viewBox="0 0 1024 1024" version="1.1" xmlns="http://www.w3.org/2000/svg"><path d="M967.54 679.97h-0.05c-19.86-0.04-35.95-16.16-35.91-36.04l0.53-321.72c0.04-19.84 16.12-35.9 35.97-35.9h0.05c19.86 0.04 35.95 16.16 35.91 36.04l-0.53 321.72c-0.04 19.85-16.13 35.9-35.97 35.9z" fill="#000000" /><path d="M644.45 943.14H378.5c-131.43 0-238.36-106.91-238.36-238.34V286.56c0-19.88 16.1-35.97 35.97-35.97s35.97 16.09 35.97 35.97V704.8c0 91.78 74.65 166.41 166.43 166.41h265.95c91.78 0 166.43-74.64 166.43-166.41V286.56c0-19.88 16.1-35.97 35.97-35.97 19.86 0 35.97 16.09 35.97 35.97V704.8c-0.02 131.43-106.96 238.34-238.38 238.34z" fill="#000000" /><path d="M992.97 269.23L526.37 85.97a40.273 40.273 0 0 0-29.61 0L30.14 269.23A40.467 40.467 0 0 0 4.46 306.9c0 16.64 10.2 31.58 25.68 37.67l466.62 183.24c4.76 1.88 9.78 2.81 14.8 2.81 5.02 0 10.04-0.93 14.8-2.81l466.6-183.24c15.48-6.09 25.68-21.03 25.68-37.67 0-16.63-10.18-31.58-25.67-37.67z" fill="#F14866" /></svg>