<svg xmlns:xlink="http://www.w3.org/1999/xlink" xmlns="http://www.w3.org/2000/svg" version="1.1" viewBox="0 0 1024 1024" height="1024px" width="1024px">
    <title>04-没有网络</title>
    <defs>
        <linearGradient id="linearGradient-1" y2="9.72998818%" x2="30.584511%" y1="95.2534653%" x1="70.5367087%">
            <stop offset="0%" stop-color="#FFF1CF"></stop>
            <stop offset="100%" stop-opacity="0" stop-color="#FFFFFF"></stop>
        </linearGradient>
        <linearGradient id="linearGradient-2" y2="100%" x2="50%" y1="32.8571409%" x1="27.1428585%">
            <stop offset="0%" stop-color="#F0C544"></stop>
            <stop offset="100%" stop-opacity="0" stop-color="#F0BF44"></stop>
        </linearGradient>
        <linearGradient id="linearGradient-3" y2="72.9166627%" x2="75%" y1="31.249997%" x1="22.9166701%">
            <stop offset="0%" stop-color="#F0BB44"></stop>
            <stop offset="100%" stop-opacity="0" stop-color="#F0BD44"></stop>
        </linearGradient>
        <linearGradient id="linearGradient-4" y2="100%" x2="50%" y1="-3.06161713e-15%" x1="50%">
            <stop offset="0%" stop-color="#F0B944"></stop>
            <stop offset="100%" stop-opacity="0" stop-color="#F0A444"></stop>
        </linearGradient>
        <linearGradient id="linearGradient-5" y2="100%" x2="50%" y1="-3.06161713e-15%" x1="50%">
            <stop offset="0%" stop-color="#F0C243"></stop>
            <stop offset="100%" stop-opacity="0" stop-color="#F0BB43"></stop>
        </linearGradient>
        <linearGradient id="linearGradient-6" y2="100%" x2="50%" y1="-3.06161713e-15%" x1="50%">
            <stop offset="0%" stop-color="#F0C443"></stop>
            <stop offset="100%" stop-opacity="0" stop-color="#F0BC43"></stop>
        </linearGradient>
        <linearGradient id="linearGradient-7" y2="100%" x2="50%" y1="-3.06161713e-15%" x1="50%">
            <stop offset="0%" stop-color="#F0B943"></stop>
            <stop offset="100%" stop-opacity="0" stop-color="#F0C143"></stop>
        </linearGradient>
        <linearGradient id="linearGradient-8" y2="100%" x2="50%" y1="-3.06161713e-15%" x1="50%">
            <stop offset="0%" stop-color="#F0BB44"></stop>
            <stop offset="100%" stop-opacity="0" stop-color="#F0C744"></stop>
        </linearGradient>
        <linearGradient id="linearGradient-9" y2="98.8039975%" x2="50%" y1="-3.06161713e-15%" x1="50%">
            <stop offset="0%" stop-color="#F0B434"></stop>
            <stop offset="100%" stop-color="#FFE099"></stop>
        </linearGradient>
        <linearGradient id="linearGradient-10" y2="100%" x2="50%" y1="-3.06161713e-15%" x1="50%">
            <stop offset="0%" stop-color="#F8BB4E"></stop>
            <stop offset="100%" stop-color="#FFE9B5"></stop>
        </linearGradient>
        <linearGradient id="linearGradient-11" y2="98.9245862%" x2="50%" y1="-3.06161713e-15%" x1="50%">
            <stop offset="0.257286659%" stop-color="#EFB63E"></stop>
            <stop offset="100%" stop-color="#FFDB88"></stop>
        </linearGradient>
    </defs>
    <g fill-rule="evenodd" fill="none" stroke-width="1" stroke="none" id="04-没有网络">
        <circle r="299.5" cy="512.5" cx="512.5" fill-rule="nonzero" fill="url(#linearGradient-1)" id="椭圆形"></circle>
        <g transform="translate(213.134832, 160.339218)" id="装饰">
            <path fill-rule="nonzero" fill="url(#linearGradient-2)" id="路径" d="M26.0019371,241.098023 C26.520906,239.695276 28.5049429,239.695276 29.0240729,241.098023 C29.0240729,241.098023 35.5056256,258.614287 35.5056256,258.614287 C35.6688406,259.055274 36.0165384,259.403133 36.4575251,259.566186 C36.4575251,259.566186 53.9737325,266.0479 53.9737325,266.0479 C55.3766081,266.566869 55.3766081,268.550906 53.9737325,269.070036 C53.9737325,269.070036 36.4575251,275.551589 36.4575251,275.551589 C36.0165384,275.714804 35.6688406,276.062501 35.5056256,276.503488 C35.5056256,276.503488 29.0240729,294.019696 29.0240729,294.019696 C28.5049429,295.422571 26.520906,295.422571 26.0019371,294.019696 C26.0019371,294.019696 19.5202233,276.503488 19.5202233,276.503488 C19.3571695,276.062501 19.0093104,275.714804 18.5683238,275.551589 C18.5683238,275.551589 1.05206001,269.070036 1.05206001,269.070036 C-0.35068667,268.550906 -0.35068667,266.566869 1.05206001,266.0479 C1.05206001,266.0479 18.5683238,259.566186 18.5683238,259.566186 C19.0093104,259.403133 19.3571695,259.055274 19.5202233,258.614287 C19.5202233,258.614287 26.0019371,241.098023 26.0019371,241.098023 C26.0019371,241.098023 26.0019371,241.098023 26.0019371,241.098023 Z"></path>
            <path fill-rule="nonzero" fill="url(#linearGradient-3)" id="路径" d="M420.6537,1.05204591 C421.172669,-0.350684654 423.156706,-0.350684654 423.675836,1.05206202 C423.675836,1.05206202 428.978792,15.3833922 428.978792,15.3833922 C429.142007,15.8243788 429.489705,16.1721412 429.930692,16.3353562 C429.930692,16.3353562 444.262032,21.6384739 444.262032,21.6384739 C445.664746,22.1574428 445.664746,24.1414798 444.262032,24.6606098 C444.262032,24.6606098 429.930692,29.9635665 429.930692,29.9635665 C429.489705,30.1267815 429.142007,30.4744793 428.978792,30.915466 C428.978792,30.915466 423.675836,45.2468058 423.675836,45.2468058 C423.156706,46.6495203 421.172669,46.6495203 420.6537,45.2468058 C420.6537,45.2468058 415.350582,30.915466 415.350582,30.915466 C415.187367,30.4744793 414.839605,30.1267815 414.398618,29.9635665 C414.398618,29.9635665 400.067272,24.6606098 400.067272,24.6606098 C398.664541,24.1414798 398.664541,22.1574428 400.067288,21.6384739 C400.067288,21.6384739 414.398618,16.3353562 414.398618,16.3353562 C414.839605,16.1721412 415.187367,15.8243788 415.350582,15.3833922 C415.350582,15.3833922 420.6537,1.05204591 420.6537,1.05204591 C420.6537,1.05204591 420.6537,1.05204591 420.6537,1.05204591 Z"></path>
            <path fill-rule="nonzero" fill="url(#linearGradient-4)" id="路径" d="M573.364145,353.705813 C573.87981,352.312428 575.850606,352.312444 576.366272,353.705829 C576.366272,353.705829 585.416505,378.163978 585.416505,378.163978 C585.578631,378.602022 585.924008,378.947399 586.362052,379.109525 C586.362052,379.109525 610.820153,388.159759 610.820153,388.159759 C612.213506,388.675424 612.213506,390.64622 610.820153,391.161886 C610.820153,391.161886 586.362052,400.212119 586.362052,400.212119 C585.924008,400.374245 585.578631,400.719623 585.416505,401.157666 C585.416505,401.157666 576.366272,425.615767 576.366272,425.615767 C575.850606,427.009121 573.87981,427.009121 573.364145,425.615767 C573.364145,425.615767 564.313911,401.157666 564.313911,401.157666 C564.151785,400.719623 563.806408,400.374245 563.368364,400.212119 C563.368364,400.212119 538.910199,391.161886 538.910199,391.161886 C537.516814,390.64622 537.51683,388.675424 538.910215,388.159759 C538.910215,388.159759 563.368364,379.109525 563.368364,379.109525 C563.806408,378.947399 564.151785,378.602022 564.313911,378.163978 C564.313911,378.163978 573.364145,353.705813 573.364145,353.705813 C573.364145,353.705813 573.364145,353.705813 573.364145,353.705813 Z"></path>
            <circle r="17.5" cy="495.160782" cx="61.3651681" fill-rule="nonzero" fill="#FFFFFF" id="椭圆形"></circle>
            <circle r="13.4613656" cy="495.160782" cx="61.3651681" stroke-width="5" stroke="url(#linearGradient-5)" id="椭圆形"></circle>
            <circle r="14" cy="121.660782" cx="202.865168" fill-rule="nonzero" fill="#FFFFFF" id="椭圆形"></circle>
            <circle r="9.96136573" cy="121.660782" cx="202.865168" stroke-width="5" stroke="url(#linearGradient-6)" id="椭圆形"></circle>
            <circle r="22.5" cy="562.160782" cx="517.365168" fill-rule="nonzero" fill="#FFFFFF" id="椭圆形"></circle>
            <circle r="18.4821429" cy="562.160782" cx="517.365168" stroke-width="5" stroke="url(#linearGradient-7)" id="椭圆形"></circle>
            <path fill-rule="nonzero" fill="url(#linearGradient-8)" id="路径" d="M494.342457,151.112445 C496.277514,148.699427 499.949448,148.699411 501.884569,151.112445 C501.884569,151.112445 510.707363,162.11515 510.707363,162.11515 C513.244365,165.279217 510.991901,169.972655 506.936339,169.972655 C506.936339,169.972655 489.290655,169.972655 489.290655,169.972655 C485.235074,169.972655 482.982562,165.279217 485.519693,162.11515 C485.519693,162.11515 494.342457,151.112445 494.342457,151.112445 C494.342457,151.112445 494.342457,151.112445 494.342457,151.112445 Z"></path>
        </g>
        <g fill-rule="nonzero" transform="translate(352.000000, 312.000000)" id="编组">
            <path fill="url(#linearGradient-9)" id="路径" d="M304.551022,289.780973 C304.551022,289.780973 304.09277,290.229101 304.09277,290.229101 C304.09277,290.229101 303.697416,290.606607 303.697416,290.606607 C303.576756,290.754271 303.439409,290.891663 303.302062,291.029055 C255.788972,338.557624 184.314599,349.016092 121.539942,323.786081 C121.539942,323.786081 138.131336,381.973428 138.131336,381.973428 C140.273693,389.488887 135.920947,397.316366 128.409219,399.458137 C127.147809,399.817667 125.842755,400 124.531027,400 C124.531027,400 40.7669181,399.984592 40.7669181,399.984592 C37.184856,399.988444 33.7355198,398.62865 31.1192513,396.181279 C31.1192513,396.181279 30.763946,395.838441 30.763946,395.838441 C28.2036432,393.276791 26.6200447,389.739273 26.6191461,385.831954 C26.6191461,384.520954 26.8009063,383.216374 27.1598057,381.954167 C27.1598057,381.954167 47.3259452,311.113936 47.3259452,311.113936 C47.3259452,311.113936 56.1209052,280.217477 56.1209052,280.217477 C56.1209052,280.217477 54.3773679,278.451929 54.3773679,278.451929 C-14.6336149,207.330494 -18.5643074,98.3463232 46.0582449,33.7023332 C46.0582449,33.7023332 46.4584767,33.3336867 46.4584767,33.3336867 C46.4584767,33.3336867 46.6766917,33.098965 46.6766917,33.098965 C46.8813002,32.8790098 47.0939956,32.6666688 47.3072044,32.4534419 C78.7139797,1.03634522 159.904051,31.1121001 230.123046,99.619059 C230.123046,99.619059 127.436751,188.410233 127.436751,188.410233 C127.436751,188.410233 127.066556,188.741514 127.066556,188.741514 C121.13111,194.219209 120.576459,203.462979 125.898336,209.621213 C126.13619,209.895996 126.383928,210.163076 126.64155,210.419883 C132.512944,216.294345 142.030965,216.295629 147.900946,210.423735 C147.900946,210.423735 148.279614,210.03082 148.279614,210.03082 C148.279614,210.03082 148.644161,209.625065 148.644161,209.625065 C148.644161,209.625065 237.40629,106.905318 237.40629,106.905318 C305.891118,177.146675 335.957283,258.364479 304.551022,289.780973 Z"></path>
            <path fill="#FFF8E5" id="路径" d="M259.254312,60.6049945 C263.985908,55.8728864 271.658073,55.8746826 276.392235,60.6076888 C281.125114,65.3410799 281.126397,73.0142695 276.394801,77.7458644 C272.271333,81.8693314 265.914213,82.3981718 261.214691,79.3328989 C261.214691,79.3328989 149.575711,208.487608 149.575711,208.487608 C149.575711,208.487608 237.446376,106.832729 237.446376,106.832729 C305.896713,177.016343 335.947736,258.166789 304.557291,289.557227 C272.619018,321.495493 189.170753,289.829217 118.169999,218.829633 C47.1703735,147.829664 15.5043724,64.3816746 47.4430946,32.4431135 C78.8339883,1.05207293 159.983169,31.1028841 230.1668,99.5530261 C230.1668,99.5530261 127.532349,188.27056 127.532349,188.27056 C127.532349,188.27056 257.667277,75.7853573 257.667277,75.7853573 C254.600977,71.0864781 255.130844,64.7288464 259.254312,60.6049945 Z"></path>
            <path fill="url(#linearGradient-10)" id="路径" d="M275.46533,77.609121 C271.357789,81.7166823 265.025224,82.2434828 260.345133,79.1899059 C260.345133,79.1899059 148.292477,208.822574 148.292477,208.822574 C148.055661,209.096071 147.809004,209.3619 147.553017,209.618782 C141.708782,215.461897 132.232006,215.460619 126.385995,209.61367 C126.129817,209.358066 125.883019,209.092237 125.646088,208.81874 C120.239279,202.564103 120.924686,193.111855 127.177738,187.707102 C127.177738,187.707102 256.810143,75.6561762 256.810143,75.6561762 C253.755687,70.9754221 254.283508,64.6423268 258.391048,60.5343692 C263.104368,55.8205387 270.746898,55.8223254 275.462773,60.5370403 C280.177371,65.2522114 280.179927,72.8957774 275.46533,77.609121 Z"></path>
            <path fill="url(#linearGradient-11)" id="路径" d="M138.454709,382.005998 C140.59519,389.506073 136.243806,397.3198 128.734485,399.459089 C127.473824,399.817987 126.169422,400 124.858607,400 C124.858607,400 41.1374111,400 41.1374111,400 C33.3298952,400 27,393.676983 27,385.877356 C27,384.568659 27.1820685,383.266371 27.540831,382.00728 C27.540831,382.00728 58.4271157,273.728846 58.4271157,273.728846 C61.5528569,262.769633 71.5070494,255.157382 82.9139266,255.002331 C94.2566675,254.848626 104.293852,262.309436 107.403944,273.206393 C107.403944,273.206393 138.454709,382.005998 138.454709,382.005998 Z"></path>
            <path fill="#FFFFFF" id="路径" d="M71,279.999975 C71,283.182519 72.2642772,286.234856 74.5147108,288.485257 C76.7651419,290.735658 79.8174021,292 83,292 C86.1826106,292 89.2348327,290.735658 91.4852892,288.485257 C93.7357457,286.234856 95,283.182519 95,279.999975 C95,276.817379 93.7357457,273.765144 91.4852892,271.514717 C89.2348327,269.264277 86.1826106,268 83,268 C79.8174021,268 76.7651419,269.264277 74.5147108,271.514717 C72.2642772,273.765144 71,276.817379 71,279.999975 C71,279.999975 71,279.999975 71,279.999975 Z"></path>
            <path fill="#FFD190" id="形状" d="M335,69 C335,106.726729 304.722288,137.381552 267.140978,137.991 C267.140978,137.991 266,138 266,138 C266,138 266,129.881748 266,129.881748 C299.288177,129.881748 326.336588,103.16699 326.874033,70.0070027 C326.874033,70.0070027 326.881748,69 326.881748,69 C326.881748,69 335,69 335,69 C335,69 335,69 335,69 C335,69 335,69 335,69 Z M316.570128,69.8991279 C316.570128,97.5485009 294.379553,120.015641 266.836126,120.462441 C266.836126,120.462441 266,120.469127 266,120.469127 C266,120.469127 266,112.377876 266,112.377876 C289.223678,112.377876 308.094179,93.7416398 308.47309,70.6083499 C308.47309,70.6083499 308.478876,69.8991279 308.478876,69.8991279 C308.478876,69.8991279 316.570128,69.8991279 316.570128,69.8991279 C316.570128,69.8991279 316.570128,69.8991279 316.570128,69.8991279 Z M295.892628,69 C295.892628,85.5452138 282.650003,98.997803 266.185277,99.3358278 C266.185277,99.3358278 265.5505,99.342128 265.5505,99.342128 C265.5505,99.342128 265.5505,91.2508767 265.5505,91.2508767 C277.644176,91.2508767 287.484439,81.6025771 287.793663,69.5834753 C287.793663,69.5834753 287.801377,69 287.801377,69 C287.801377,69 295.892628,69 295.892628,69 C295.892628,69 295.892628,69 295.892628,69 Z M266,19.3290003 C266,19.3290003 266,27.4202516 266,27.4202516 C242.77645,27.4202516 223.90595,46.0564875 223.527038,69.1897773 C223.527038,69.1897773 223.521252,69.8991279 223.521252,69.8991279 C223.521252,69.8991279 215.430001,69.8991279 215.430001,69.8991279 C215.430001,41.9699748 238.070975,19.3290003 266,19.3290003 C266,19.3290003 266,19.3290003 266,19.3290003 Z M265.5505,38.6580006 C265.5505,38.6580006 265.5505,46.7492518 265.5505,46.7492518 C253.456825,46.7492518 243.616562,56.3975515 243.307338,68.4165247 C243.307338,68.4165247 243.299752,69 243.299752,69 C243.299752,69 235.208501,69 235.208501,69 C235.208501,52.242251 248.792751,38.6580006 265.5505,38.6580006 C265.5505,38.6580006 265.5505,38.6580006 265.5505,38.6580006 Z M266,0 C266,0 266,8.11772496 266,8.11772496 C232.711952,8.11772496 205.66345,34.8331389 205.125838,67.9931259 C205.125838,67.9931259 205.117738,69 205.117738,69 C205.117738,69 197,69 197,69 C197,30.8923022 227.892302,0 266,0 C266,0 266,0 266,0 Z"></path>
        </g>
    </g>
</svg>