<?xml version="1.0" standalone="no"?><!DOCTYPE svg PUBLIC "-//W3C//DTD SVG 1.1//EN" "http://www.w3.org/Graphics/SVG/1.1/DTD/svg11.dtd"><svg class="icon" width="200px" height="200.00px" viewBox="0 0 1024 1024" version="1.1" xmlns="http://www.w3.org/2000/svg"><path d="M785.066667 892.586667H238.933333c-37.546667 0-68.266667-32.426667-68.266666-71.68V450.56c0-39.253333 30.72-71.68 68.266666-71.68h546.133334c37.546667 0 68.266667 32.426667 68.266666 71.68v370.346667c0 39.253333-30.72 71.68-68.266666 71.68zM238.933333 447.146667v373.76c0 1.706667 1.706667 3.413333 1.706667 3.413333H785.066667V450.56c0-1.706667-1.706667-3.413333-1.706667-3.413333H238.933333z" fill="#3793DF" /><path d="M682.666667 448.853333H341.333333v-145.066666c0-93.866667 76.8-170.666667 170.666667-170.666667 44.373333 0 87.04 17.066667 121.173333 47.786667C665.6 213.333333 682.666667 256 682.666667 303.786667v145.066666z m-273.066667-68.266666h204.8v-76.8c0-29.013333-10.24-54.613333-29.013333-73.386667-20.48-18.773333-46.08-29.013333-73.386667-29.013333-56.32 0-102.4 46.08-102.4 102.4v76.8z" fill="#3793DF" /><path d="M512 713.386667c-18.773333 0-34.133333-15.36-34.133333-34.133334v-136.533333c0-18.773333 15.36-34.133333 34.133333-34.133333s34.133333 15.36 34.133333 34.133333v136.533333c0 18.773333-15.36 34.133333-34.133333 34.133334z" fill="#EB4AF4" /><path d="M512 696.32m-68.266667 0a68.266667 68.266667 0 1 0 136.533334 0 68.266667 68.266667 0 1 0-136.533334 0Z" fill="#EB4AF4" /></svg>