<?xml version="1.0" standalone="no"?><!DOCTYPE svg PUBLIC "-//W3C//DTD SVG 1.1//EN" "http://www.w3.org/Graphics/SVG/1.1/DTD/svg11.dtd"><svg class="icon" width="200px" height="200.00px" viewBox="0 0 1024 1024" version="1.1" xmlns="http://www.w3.org/2000/svg"><path d="M811.952 718.96a8.032 8.032 0 0 1-5.664-2.336l-58.608-58.592a8 8 0 0 1 1.008-12.176 185.84 185.84 0 0 0 23.648-19.728c6.8-6.816 13.264-14.544 19.728-23.664a7.968 7.968 0 0 1 12.192-1.008l58.608 58.608a8 8 0 0 1 0 11.328L817.6 716.608a7.952 7.952 0 0 1-5.648 2.352z m-46.4-65.696l46.384 46.368 33.952-33.936-46.384-46.384c-5.152 6.672-10.384 12.64-15.84 18.112-5.44 5.44-11.408 10.656-18.112 15.84z m12.448-21.504h0.16-0.16z" fill="#263238" /><path d="M778 360.24c-74.976-74.976-196.544-74.976-271.536 0s-74.976 196.544 0 271.536c74.976 74.976 196.544 74.976 271.536 0 74.992-74.992 74.992-196.56 0-271.536z m-33.936 237.584a144 144 0 0 1-203.648 0 144 144 0 0 1 0-203.648 144 144 0 0 1 203.648 0 144 144 0 0 1 0 203.648z" fill="#40C4FF" /><path d="M642.24 695.904a199.44 199.44 0 0 1-141.424-58.48c-77.984-77.984-77.984-204.864 0-282.848 77.984-77.968 204.864-77.968 282.848 0 77.984 77.984 77.984 204.864 0 282.848a199.44 199.44 0 0 1-141.424 58.48z m0-383.824c-47.12 0-94.24 17.936-130.112 53.808-71.728 71.744-71.728 188.464 0 260.224 71.744 71.712 188.48 71.744 260.224 0 71.728-71.744 71.728-188.464 0-260.224a183.44 183.44 0 0 0-130.112-53.808z m0 335.856a151.568 151.568 0 0 1-107.472-44.448c-59.264-59.264-59.264-155.696 0-214.976 59.264-59.248 155.68-59.248 214.96 0 28.704 28.704 44.528 66.88 44.528 107.488s-15.808 78.784-44.528 107.488a151.632 151.632 0 0 1-107.488 44.448z m0-287.872a135.552 135.552 0 0 0-96.16 39.76c-53.024 53.024-53.024 139.312 0 192.336s139.296 53.024 192.336 0c25.68-25.68 39.84-59.84 39.84-96.176s-14.144-70.48-39.84-96.176a135.664 135.664 0 0 0-96.176-39.744zM942.048 853.744c-6.4 0-12.432-2.496-16.976-7.024l-113.136-113.12a24.064 24.064 0 0 1 0-33.952l33.952-33.936a24.048 24.048 0 0 1 33.936 0l113.136 113.136a24.016 24.016 0 0 1 0 33.936l-33.952 33.936a23.792 23.792 0 0 1-16.96 7.024z m-79.184-179.072a8.032 8.032 0 0 0-5.664 2.336l-33.952 33.936a8.032 8.032 0 0 0 0 11.328l113.136 113.12c3.04 3.04 8.304 3.008 11.312 0l33.952-33.936a8 8 0 0 0 0-11.312l-113.136-113.136a7.968 7.968 0 0 0-5.648-2.336z m-11.312-3.312h0.16-0.16zM112 920a8 8 0 0 1-8-8v-16a8 8 0 0 1 16 0v16a8 8 0 0 1-8 8zM112 872a8 8 0 0 1-8-8V640a8 8 0 0 1 16 0v224a8 8 0 0 1-8 8zM896 232a8 8 0 0 1-8-8v-16a8 8 0 0 1 16 0v16a8 8 0 0 1-8 8zM896 488a8 8 0 0 1-8-8V256a8 8 0 0 1 16 0v224a8 8 0 0 1-8 8z" fill="#263238" /><path d="M792 1000h-576c-26.464 0-48-21.536-48-48v-784c0-26.464 21.536-48 48-48h576c26.464 0 48 21.536 48 48v204.656a8 8 0 0 1-16 0V168c0-17.648-14.352-32-32-32h-576c-17.648 0-32 14.352-32 32v784c0 17.648 14.352 32 32 32h576c17.648 0 32-14.352 32-32V789.824a8 8 0 0 1 16 0V952c0 26.464-21.536 48-48 48zM176 72H112a8 8 0 0 1 0-16h64a8 8 0 0 1 0 16z" fill="#263238" /><path d="M144 104a8 8 0 0 1-8-8V32a8 8 0 0 1 16 0v64a8 8 0 0 1-8 8zM96 160H32a8 8 0 0 1 0-16h64a8 8 0 0 1 0 16z" fill="#263238" /><path d="M64 192a8 8 0 0 1-8-8v-64a8 8 0 0 1 16 0v64a8 8 0 0 1-8 8zM432 624H264a8 8 0 0 1 0-16H432a8 8 0 0 1 0 16zM744 752h-480a8 8 0 0 1 0-16h480a8 8 0 0 1 0 16zM744 816h-480a8 8 0 0 1 0-16h480a8 8 0 0 1 0 16zM744 880h-480a8 8 0 0 1 0-16h480a8 8 0 0 1 0 16zM348 672H264a8 8 0 0 1 0-16h84a8 8 0 0 1 0 16z" fill="#263238" /><path d="M722.24 573.328h-160a16 16 0 0 1-16-16v-112a16 16 0 0 1 16-16h160a16 16 0 0 1 16 16v112a16 16 0 0 1-16 16z" fill="#FFD740" /><path d="M722.24 581.328h-160c-13.232 0-24-10.768-24-24v-112c0-13.232 10.768-24 24-24h160c13.232 0 24 10.768 24 24v112c0 13.232-10.768 24-24 24z m-160-144a8 8 0 0 0-8 8v112a8 8 0 0 0 8 8h160a8 8 0 0 0 8-8v-112a8 8 0 0 0-8-8h-160z" fill="#263238" /><path d="M674.24 437.328h-64a8 8 0 0 1-8-8v-16c0-13.232 10.768-24 24-24h32c13.232 0 24 10.768 24 24v16a8 8 0 0 1-8 8z m-56-16h48v-8a8 8 0 0 0-8-8h-32a8 8 0 0 0-8 8v8zM610.24 509.328h-64a8 8 0 0 1 0-16h64a8 8 0 0 1 0 16zM738.24 509.328h-64a8 8 0 0 1 0-16h64a8 8 0 0 1 0 16zM824 264H176a8 8 0 0 1 0-16h648a8 8 0 0 1 0 16zM240 224c-17.648 0-32-14.352-32-32s14.352-32 32-32 32 14.352 32 32-14.352 32-32 32z m0-48a16.016 16.016 0 0 0 0 32 16.016 16.016 0 0 0 0-32zM320 224c-17.648 0-32-14.352-32-32s14.352-32 32-32 32 14.352 32 32-14.352 32-32 32z m0-48a16.016 16.016 0 0 0 0 32 16.016 16.016 0 0 0 0-32z" fill="#263238" /><path d="M240 328h192v64H240z" fill="#FF5252" /><path d="M432 400H240a8 8 0 0 1-8-8v-64a8 8 0 0 1 8-8h192a8 8 0 0 1 8 8v64a8 8 0 0 1-8 8z m-184-16h176v-48h-176v48z" fill="#263238" /><path d="M642.24 517.328a8 8 0 0 1-8-8v-16a8 8 0 0 1 16 0v16a8 8 0 0 1-8 8z" fill="#263238" /></svg>