<?xml version="1.0" standalone="no"?><!DOCTYPE svg PUBLIC "-//W3C//DTD SVG 1.1//EN" "http://www.w3.org/Graphics/SVG/1.1/DTD/svg11.dtd"><svg class="icon" width="200px" height="200.00px" viewBox="0 0 1024 1024" version="1.1" xmlns="http://www.w3.org/2000/svg"><path d="M214.092 205.544c79.087-8.871 178.714-42.719 298.88-101.544 131.89 61.904 237.39 96.127 316.5 102.67C845.03 207.956 857 220.958 857 236.568v306.577C829.242 726.922 714.242 852.54 512 920c-204.854-67.712-319.854-193.33-345-376.855V258.214c0-26.985 20.275-49.662 47.092-52.67z" fill="#1C9DFF" /><path d="M467.851 647c-7.63 0-15.23-2.925-21.05-8.745L327.708 518.697c-11.61-11.67-11.61-30.606 0-42.276 11.641-11.67 30.49-11.67 42.1 0l98.043 98.422 187.34-188.068c11.611-11.7 30.46-11.7 42.1 0 11.612 11.67 11.612 30.575 0 42.245l-208.39 209.235a29.72 29.72 0 0 1-21.05 8.745z" fill="#333333" /></svg>