<?xml  version="1.0" standalone="no"?><!DOCTYPE svg PUBLIC "-//W3C//DTD SVG 1.1//EN" "http://www.w3.org/Graphics/SVG/1.1/DTD/svg11.dtd"><svg t="1683019336842" class="icon" viewBox="0 0 1024 1024" version="1.1" xmlns="http://www.w3.org/2000/svg" p-id="16405" xmlns:xlink="http://www.w3.org/1999/xlink" width="200" height="200"><path d="M509.611198 560.572317a242.065319 242.065319 0 1 0 0-484.130637 242.065319 242.065319 0 0 0 0 484.130637z m0-101.922239a140.143079 140.143079 0 1 1 0-280.286159 140.143079 140.143079 0 0 1 0 280.286159zM178.363919 1019.222395v-191.104199A76.44168 76.44168 0 0 1 254.805599 751.676516h445.909798v-101.922239H254.805599A178.363919 178.363919 0 0 0 76.44168 828.118196v191.104199h101.922239z" fill="#33B2C4" p-id="16406"></path><path d="M541.334495 794.547558l-63.446595 79.754153 188.110234 149.698289 269.584323-274.998942-72.8107-71.345568-205.182208 209.386501z" fill="#33B2C4" p-id="16407"></path></svg>