<?xml version="1.0" standalone="no"?><!DOCTYPE svg PUBLIC "-//W3C//DTD SVG 1.1//EN" "http://www.w3.org/Graphics/SVG/1.1/DTD/svg11.dtd"><svg t="1685187110426" class="icon" viewBox="0 0 1024 1024" version="1.1" xmlns="http://www.w3.org/2000/svg" p-id="63235" xmlns:xlink="http://www.w3.org/1999/xlink" width="200" height="200"><path d="M677.262222 810.477037c-10.903704 0-21.807407-4.171852-30.151111-12.515556-16.687407-16.687407-16.687407-43.70963 0-60.302222l225.46963-225.469629-225.564445-225.46963c-16.687407-16.687407-16.687407-43.70963 0-60.302222 16.687407-16.687407 43.70963-16.687407 60.302223 0l255.62074 255.620741c16.687407 16.687407 16.687407 43.70963 0 60.302222L707.413333 797.961481c-8.343704 8.343704-19.247407 12.515556-30.151111 12.515556z" p-id="63236" fill="#1296db"></path><path d="M258.56 512.18963m-42.666667 0a42.666667 42.666667 0 1 0 85.333334 0 42.666667 42.666667 0 1 0-85.333334 0Z" fill="#1296db" p-id="63237"></path><path d="M85.333333 512.18963m-42.666666 0a42.666667 42.666667 0 1 0 85.333333 0 42.666667 42.666667 0 1 0-85.333333 0Z" fill="#1296db" p-id="63238"></path><path d="M932.882963 554.856296H426.097778c-23.608889 0-42.666667-19.057778-42.666667-42.666666s19.057778-42.666667 42.666667-42.666667h506.69037c23.608889 0 42.666667 19.057778 42.666667 42.666667s-19.057778 42.666667-42.571852 42.666666z" p-id="63239" fill="#1296db"></path></svg>