<?xml version="1.0" standalone="no"?><!DOCTYPE svg PUBLIC "-//W3C//DTD SVG 1.1//EN" "http://www.w3.org/Graphics/SVG/1.1/DTD/svg11.dtd"><svg class="icon" width="200px" height="193.76px" viewBox="0 0 1057 1024" version="1.1" xmlns="http://www.w3.org/2000/svg"><path fill="#1296db" d="M935.275355 920.179613c-46.773677 0-78.748903-38.978065-95.628387-66.85729a486.036645 486.036645 0 0 0 143.326967-345.616517C982.973935 238.228645 764.366452 19.621161 494.88929 19.621161 225.742452 19.951484 7.134968 238.228645 7.134968 507.705806c0 269.444129 218.607484 488.051613 488.051613 488.051613 89.847742 0 173.848774-24.113548 245.925161-66.56 47.368258 65.965419 153.467871 92.424258 153.467871 92.424258h138.669419v-101.442064h-97.973677zM228.913548 640.825806a133.12 133.12 0 1 1 0-266.24 133.12 133.12 0 0 1 133.12 133.12 132.921806 132.921806 0 0 1-133.12 133.12zM495.483871 907.396129a133.12 133.12 0 1 1 0-266.273032 133.12 133.12 0 1 1 0 266.24z m-70.35871-399.426064c0-38.945032 31.380645-70.35871 70.35871-70.35871s70.35871 31.413677 70.35871 70.35871c0 38.978065-31.380645 70.35871-70.35871 70.358709s-70.35871-31.710968-70.35871-70.358709zM495.483871 364.081548a133.12 133.12 0 1 1 0-266.24 133.12 133.12 0 1 1 0 266.24z m143.888516 143.888517a133.12 133.12 0 1 1 266.24 0 133.12 133.12 0 1 1-266.24 0z"  /></svg>